<svg width="72" height="72" viewBox="0 0 72 72" fill="none" xmlns="http://www.w3.org/2000/svg">
<g clip-path="url(#clip0_4_40)">
<path d="M0 0H22.107H23.4056H24.0543H27.3251H29.0119H30.8478H32.8257H35.1279H42.6774H44.4862H72V11.3917V13.8234V26.3805V30.5242V31.443V37.8105V39.5606V46.587V48.2821V52.1764V53.5328V59.1489V60.5429V72H0V59.4759V59.37V58.0077V52.249V50.6943V46.9138V41.3348V34.706V29.8596V27.6437V26.7241V25.459V13.3864V11.4244V9.31352V3.21178V0Z" fill="#2A130E"/>
<path d="M23.5677 7.12708C23.4667 7.42471 23.135 7.64858 22.9339 7.88997C22.7016 8.16875 22.5129 8.45999 22.3668 8.79257C22.3455 8.8408 22.3549 8.8214 22.3248 8.87174L22.2173 8.49072C22.4682 7.95543 23.086 7.4548 23.5677 7.12708Z" fill="#CA9268"/>
<path d="M21.7884 15.5408L22.6442 16.444L22.2972 16.6909L21.9073 16.968L21.7884 15.5408Z" fill="#B76A44"/>
<path d="M50.546 46.807C50.3305 46.6927 50.0642 46.0312 49.9386 45.7949C50.2396 45.8065 50.6895 45.7809 50.9635 45.8965C51.0894 46.1108 51.1005 46.5301 51.139 46.7811L50.546 46.807Z" fill="#887663"/>
<path d="M50.2808 11.1292L50.892 11.6771L50.5038 12.2417C50.4841 12.2681 50.431 12.3525 50.4049 12.3655C50.3641 12.3859 50.3172 12.3914 50.2734 12.4043C50.0005 12.3591 49.7097 12.1617 49.4608 12.038C49.7696 11.731 50.0538 11.5125 50.2808 11.1292Z" fill="#5C5A58"/>
<path d="M29.0119 0H30.8478L29.7658 1.1277L29.0119 0Z" fill="#4FC8F8"/>
<path d="M52.9346 16.2818L53.2097 15.4473C54.0243 15.8553 54.7733 16.1349 55.4515 16.7803C54.8767 16.7628 54.2778 16.6563 53.7188 16.5245C53.4553 16.4624 53.1764 16.4053 52.9346 16.2818Z" fill="#786658"/>
<path d="M31.3437 1.23828L32.6909 1.41747C32.4802 1.66518 32.3557 2.12085 32.2832 2.43804L30.49 2.28755C30.7412 1.90319 31.0339 1.5749 31.3437 1.23828Z" fill="#5C5A58"/>
<path d="M32.3438 44.8753L34.8994 43.8723C35.2033 43.7479 35.5111 43.5322 35.8242 43.4554C36.1009 43.5354 36.5273 44.0573 36.7171 44.2976C36.0934 44.3197 35.4252 44.2907 34.8076 44.3731C34.2912 44.442 33.762 44.6027 33.2608 44.7431L32.7135 44.9043C32.6593 44.9205 32.5371 44.9712 32.4844 44.9667C32.4615 44.9647 32.3691 44.8917 32.3438 44.8753Z" fill="#46454A"/>
<path d="M49.5089 35.4586C49.129 35.3757 48.7438 35.3245 48.3992 35.1322C48.0803 34.9542 47.8165 34.6192 47.7259 34.2646C47.6869 34.1124 47.6686 33.7418 47.7575 33.6082C47.8946 33.4023 48.31 33.3805 48.5443 33.3376C48.5819 33.7062 48.602 34.0684 48.8033 34.3921C48.917 34.5748 49.09 34.728 49.2403 34.8808C49.3336 34.9759 49.4415 35.0681 49.4975 35.1914C49.5368 35.2781 49.5894 35.3558 49.5288 35.442L49.5089 35.4586Z" fill="#CA9268"/>
<path d="M20.1724 22.7689L20.1924 22.7949C20.3321 22.9806 20.3956 23.2572 20.5356 23.4223C20.6046 23.5035 20.9038 23.6268 21.0121 23.6618L20.3247 26.6959C20.2463 26.5409 20.2163 26.3017 20.1802 26.1287C19.9455 25.0016 19.968 23.8983 20.1724 22.7689Z" fill="#393B45"/>
<path d="M45.3289 18.0075L46.2264 17.9009L46.2163 17.9603C46.1797 18.1957 46.1625 18.4137 46.3216 18.6077L46.5462 18.8298C45.6784 19.5183 45.0344 20.2264 44.3951 21.135C44.4059 20.9175 44.4989 20.7288 44.5733 20.5263L44.8565 19.7067L45.1609 18.6392L45.066 18.5774C45.113 18.5656 45.1618 18.544 45.2074 18.5273L45.3289 18.0075Z" fill="#FAB383"/>
<path d="M30.9042 40.5859L31.1698 39.7258C31.2081 39.6029 31.2425 39.4288 31.3158 39.3223C31.3506 39.2716 31.4095 39.2217 31.4665 39.1974C31.5584 39.158 31.7266 39.1471 31.8158 39.1986C31.875 39.2329 31.8777 39.2636 31.9069 39.3223C31.8223 39.897 31.2678 40.0708 31.7275 40.6778C32.0699 41.1299 32.5321 41.5919 32.9767 41.943L34.1336 42.78L33.5215 43.0241C33.1748 42.8512 32.7966 42.6687 32.4877 42.4327C31.8532 41.9479 31.3766 41.2185 30.9042 40.5859Z" fill="#887663"/>
<path d="M51.9008 12.5153C52.0944 12.2051 52.2344 11.8585 52.5364 11.6346C52.8287 11.418 53.2204 11.274 53.5487 11.1109C54.1098 10.8321 54.6973 10.4831 55.2907 10.285C55.5874 10.1861 55.9773 10.0808 56.2905 10.1394C56.4974 10.1781 56.6063 10.2973 56.7254 10.4603C56.3844 10.7409 55.9878 10.9093 55.583 11.0779L53.2657 11.9398C52.8618 12.0958 52.385 12.2766 52.0271 12.5184L51.9008 12.5153Z" fill="#DC9F72"/>
<path d="M37.3821 43.0717L36.8097 42.4647L39.605 41.1676C39.9505 40.9706 40.3986 40.5417 40.5604 40.1704C40.6083 40.0609 40.6166 39.9355 40.6508 39.8212C40.6757 39.7382 40.6722 39.7317 40.7461 39.6925L40.8408 39.7672C40.8743 40.2859 40.7982 40.8587 40.7468 41.3777C40.6131 41.4248 40.5055 41.5353 40.3965 41.6234C40.2213 41.7652 40.0453 41.8931 39.8529 42.0108C39.3619 42.3111 38.8191 42.5255 38.2813 42.7263C38.08 42.8015 37.4852 42.93 37.3821 43.0717Z" fill="#887663"/>
<path d="M22.8257 46.5002L27.5832 42.4511C27.6274 42.4221 27.6147 42.4308 27.6784 42.4466C27.8546 42.4904 27.9422 42.6849 28.0294 42.8288L25.9508 44.6697C25.1638 45.3715 24.424 46.1175 23.7428 46.9223L22.8257 46.5002Z" fill="#DC9F72"/>
<path d="M28.9842 9.76904C29.1123 9.95621 29.1043 10.0566 29.1412 10.2674C29.1593 10.4914 29.1872 10.7061 29.2423 10.9242C29.3991 12.018 30.3127 13.0477 31.1718 13.6869C31.813 14.1639 32.5678 14.504 33.3549 14.6397C33.3339 14.8423 33.323 15.189 33.2285 15.3637C33.1966 15.4227 33.1776 15.4133 33.1172 15.433C32.8745 15.3888 32.6346 15.2817 32.4053 15.1915C31.4488 14.8154 30.5735 14.2105 29.9427 13.3935C29.1291 12.3395 28.81 11.0812 28.9842 9.76904Z" fill="#B76A44"/>
<path d="M53.0956 7.50574L53.1239 7.83986C53.2328 7.90286 55.62 7.83332 55.9484 7.81413C56.0073 8.09046 56.0811 8.33796 56.2236 8.58454C56.2835 8.68825 56.3717 8.77832 56.4248 8.88323C56.1862 8.88323 55.9326 8.87275 55.6967 8.90946C54.6987 9.06464 53.7647 9.60682 52.8856 10.0752L53.0434 8.871C53.0909 8.41439 53.0965 7.96417 53.0956 7.50574Z" fill="#4FC8F8"/>
<path d="M25.3484 40.4048C25.7367 40.2502 26.1497 40.2436 26.5606 40.2171L27.7972 40.1326C28.4376 40.087 29.0901 40.0036 29.7323 40.0115L29.1174 42.2966C28.8509 41.9666 28.3714 41.2766 27.9213 41.2208C27.6927 41.1923 27.4372 41.23 27.2427 41.3611C27.0465 41.4455 26.8733 41.5786 26.6984 41.6996C26.6028 41.6246 26.5362 41.4495 26.4711 41.3438C26.1935 40.8926 25.8237 40.6177 25.3484 40.4048Z" fill="#887663"/>
<path d="M30.9043 40.5858C31.3766 41.2184 31.8533 41.9478 32.4878 42.4326C32.7966 42.6686 33.1749 42.8511 33.5216 43.024L31.4365 43.8192C31.084 43.9511 30.6623 44.1867 30.2871 44.1561C30.2361 44.127 30.1859 44.0999 30.1568 44.0456C30.0424 43.8323 30.226 43.2729 30.281 43.0339L30.9043 40.5858Z" fill="#988D77"/>
<path d="M18.0977 12.0134C18.4407 12.7124 18.8828 13.277 19.5758 13.6632C19.997 13.8979 20.4732 14.0547 20.9244 14.2215C20.807 14.3525 20.6802 14.4846 20.5911 14.6371C20.3171 15.1056 20.3162 15.6612 20.3438 16.1882C20.3632 16.561 20.4595 16.9212 20.5914 17.2697C20.3991 17.1626 20.2439 16.9916 20.0918 16.835C19.8006 16.5353 19.5257 16.2204 19.2833 15.8796C18.5439 14.84 17.875 13.3158 18.0977 12.0134Z" fill="#887663"/>
<path d="M36.7171 44.2976L38.5593 45.9707L38.5183 45.9672C38.2044 45.9354 37.9006 45.7773 37.6068 45.6686L36.0908 45.1563C35.8384 45.0652 35.5734 44.9202 35.3145 44.861C35.2264 44.8409 35.1385 44.8548 35.0508 44.8683L34.9868 44.8778C34.6913 44.9247 34.3968 45.0052 34.1056 45.0734C33.8471 45.134 33.58 45.1689 33.3286 45.2565C33.092 45.339 32.8335 45.493 32.6202 45.6246L32.687 46.654L32.1595 46.6644L31.9043 46.6664C31.8948 46.6648 31.845 46.6479 31.8344 46.6347C31.7465 46.5254 31.6762 46.3618 31.6017 46.2404L31.0562 45.3823L32.3438 44.8752C32.3691 44.8917 32.4616 44.9647 32.4844 44.9666C32.5371 44.9711 32.6593 44.9205 32.7135 44.9043L33.2609 44.7431C33.7621 44.6027 34.2912 44.442 34.8076 44.3731C35.4252 44.2906 36.0935 44.3196 36.7171 44.2976Z" fill="#887663"/>
<path d="M42.1804 26.7499L42.3718 26.7553C42.1736 28.4361 42.3054 30.1685 43.3862 31.5495C43.698 31.9479 44.0682 32.2697 44.4654 32.5789C43.3864 33.0848 42.2719 33.5743 41.1205 33.8952L41.753 32.9642C42.0009 32.5193 42.1732 32.0192 42.2864 31.524C42.3386 31.2954 42.3877 31.0932 42.3176 30.8621C41.9071 29.5101 41.9225 28.1425 42.1585 26.7592L42.1804 26.7499Z" fill="#F5C68D"/>
<path d="M20.1724 22.7689C20.4814 20.8409 21.5091 18.7288 23.1657 17.614L23.2509 17.5673L21.0121 23.6618C20.9038 23.6268 20.6046 23.5035 20.5356 23.4223C20.3956 23.2572 20.3321 22.9805 20.1924 22.7949L20.1724 22.7689Z" fill="#46454A"/>
<path d="M20.6994 4.22172C20.9128 4.14593 21.3219 3.93989 21.5447 3.98094C21.6468 4.1084 21.6441 4.32469 21.6744 4.48244C21.8064 5.17049 22.2575 5.64844 22.7944 6.05653C22.1189 6.62762 21.4664 7.17428 20.9766 7.92044C20.8144 8.16766 20.6756 8.41973 20.5446 8.6848C20.4593 8.85742 20.3817 9.11252 20.2383 9.24351C20.0032 9.45817 19.4333 9.53537 19.1276 9.60182C19.3218 9.25476 19.6458 9.03348 19.899 8.73634C20.0409 8.5697 20.1181 8.20288 20.188 7.99483C20.6168 6.7184 20.841 5.56847 20.6994 4.22172Z" fill="#887663"/>
<path d="M43.6478 28.6073C43.8416 28.71 44.1825 28.9268 44.3942 28.9537C44.5395 28.9722 44.8062 28.8859 44.9473 28.8428L45.388 28.6905C45.5761 29.6856 45.9216 30.6816 46.7927 31.2852C47.4937 31.771 48.279 31.7965 49.0859 31.6337L49.2373 31.6025C49.0532 31.7652 48.8586 31.8498 48.6298 31.9336C48.4289 32.0072 48.2258 32.0618 48.0135 32.0915C46.9761 32.2368 45.7783 31.9172 44.9566 31.2648C44.1233 30.6034 43.7714 29.6367 43.6478 28.6073Z" fill="#46454A"/>
<path d="M42.0979 40.6969L45.2002 41.7614L43.371 43.2796L41.6867 44.6514L42.0979 40.6969Z" fill="#887663"/>
<path d="M37.3821 43.0717C37.4852 42.93 38.0801 42.8015 38.2813 42.7264C38.8191 42.5255 39.3619 42.3111 39.8529 42.0108C40.0454 41.8931 40.2213 41.7652 40.3965 41.6234C40.5056 41.5353 40.6131 41.4248 40.7469 41.3777L40.2134 45.5505C39.1736 44.8115 38.2711 43.983 37.3821 43.0717Z" fill="#988D77"/>
<path d="M52.9346 16.2817C53.1764 16.4052 53.4553 16.4623 53.7188 16.5244C54.2778 16.6562 54.8767 16.7627 55.4516 16.7803C55.8601 17.1623 56.2427 17.568 56.5645 18.0267C55.9302 18.0407 55.309 18.0976 54.6791 18.1718C54.3959 18.2052 54.0914 18.221 53.8162 18.2932C53.5946 18.3514 53.378 18.4756 53.1724 18.5753C52.9639 18.6765 52.7394 18.7694 52.5443 18.8943L51.6925 18.3401C52.2343 17.7057 52.6108 17.0479 52.9346 16.2817Z" fill="#887663"/>
<path d="M22.0136 24.9531L22.6811 25.7551L22.6927 25.779L22.4087 27.5316C22.3743 27.791 22.3244 28.0623 22.3203 28.3242C22.3161 28.5879 22.3788 28.8382 22.4199 29.0967C22.5798 30.1022 22.8479 31.1232 23.2402 32.0635C23.3353 32.2914 23.4299 32.5571 23.5734 32.7582C23.9444 33.2781 24.6786 33.7373 25.2246 34.0634C25.4687 34.2091 25.8588 34.3283 26.0234 34.5575C25.7571 34.4866 25.4899 34.3642 25.2394 34.2509C24.1094 33.7397 23.1479 32.9563 22.4878 31.8996C21.1724 29.7939 21.4865 27.2535 22.0136 24.9531Z" fill="#F5C68D"/>
<path d="M53.0952 28.9707L54.1785 26.1928C54.8431 26.0345 55.2601 25.6674 55.7997 25.2793C56.0676 25.0866 56.3353 24.9197 56.5725 24.686C56.7795 24.4822 56.9564 24.2449 57.1286 24.0117C57.2836 23.8019 57.4609 23.4677 57.7292 23.3921C57.973 23.3234 58.2636 23.3062 58.5167 23.291C59.3985 23.2383 60.172 23.3719 60.9419 23.8091C60.8718 23.9587 60.7775 24.0394 60.6554 24.1436C60.1448 24.1643 59.6474 24.0638 59.1387 24.0912C57.7874 24.1638 56.4836 25.0474 55.5979 26.0199C55.2708 26.3792 55.004 26.8045 54.804 27.2461C54.6695 27.5429 54.5758 27.858 54.3832 28.125L54.3821 28.1738C54.3766 28.3496 54.3767 28.4806 54.2457 28.61C54.0947 28.7594 53.3521 28.9783 53.1267 28.9733L53.0952 28.9707Z" fill="#CA9268"/>
<path d="M28.0295 42.8287L28.7111 43.9286C27.6594 44.8466 26.5976 45.7784 25.6202 46.7754C25.3885 47.0118 25.0894 47.2769 24.9148 47.5542C24.5463 47.2852 24.1536 47.1144 23.7428 46.9223C24.4241 46.1174 25.1639 45.3714 25.9508 44.6696L28.0295 42.8287Z" fill="#CA9268"/>
<path d="M22.8064 22.2805C23.2028 21.0369 23.7276 19.8306 24.2025 18.6157L24.6288 17.4506L25.5826 15.3461C25.7597 14.9677 25.9007 14.5812 26.1245 14.2251C26.6097 13.4529 27.2147 12.8376 27.8655 12.208L28.4251 13.5059L28.3688 13.4625C28.3055 13.412 28.2921 13.3783 28.2568 13.3065L28.1731 13.1678C28.0707 13.2626 27.9718 13.4062 27.8607 13.4812C27.6569 13.6185 27.4731 13.9165 27.3146 14.11C27.3479 14.1975 27.4382 14.2609 27.4228 14.3508C27.3733 14.3109 27.3431 14.2855 27.2826 14.2635L26.4709 15.3295C26.1881 15.6827 25.8934 16.0419 25.67 16.4377C25.4494 16.8286 25.2841 17.2892 25.1138 17.7064L23.92 21.0277C23.837 21.2963 23.7082 21.6031 23.6668 21.8782L23.6388 21.8888C23.4886 21.9345 23.3412 21.9834 23.2037 22.0605C23.0873 22.1259 22.9372 22.2631 22.8064 22.2805Z" fill="url(#paint0_linear_4_40)"/>
<path d="M33.3132 16.821C33.6152 16.8067 33.953 16.7954 34.1776 16.5616C34.407 16.3229 34.4646 15.9785 34.544 15.668C35.2959 16.2951 36.3093 17.3216 37.3711 17.2212C37.8108 17.1797 38.1919 16.9557 38.465 16.6156C38.6334 16.4061 38.7595 16.1615 38.8915 15.9281C40.5786 17.5098 42.5736 18.1135 44.8474 18.0386L45.3289 18.0075L45.2074 18.5273C45.1618 18.544 45.113 18.5656 45.066 18.5774C43.6258 18.5029 42.2317 18.3406 40.8473 17.9217L39.571 17.4711C39.4936 17.4394 38.9853 17.1954 38.9239 17.2097C38.8573 17.2252 38.6693 17.3907 38.6078 17.4367C38.4807 17.5318 38.3385 17.6068 38.1879 17.6581C37.1343 18.0174 35.7074 17.4911 34.7695 16.9827C34.4942 16.8335 34.1789 16.8852 33.8731 16.8825C33.6812 16.8809 33.5015 16.8548 33.3132 16.821Z" fill="#DC9F72"/>
<path d="M32.687 46.654L32.6202 45.6247C32.8335 45.493 33.092 45.3391 33.3286 45.2565C33.58 45.1689 33.8471 45.134 34.1056 45.0735C34.3968 45.0052 34.6913 44.9248 34.9867 44.8779L35.0508 44.8684C35.1385 44.8548 35.2264 44.841 35.3145 44.8611C35.5734 44.9203 35.8384 45.0653 36.0908 45.1564L37.6068 45.6687C37.9006 45.7774 38.2044 45.9354 38.5183 45.9672L38.5593 45.9707L39.4765 46.6822L32.687 46.654Z" fill="#988D77"/>
<path d="M41.087 46.7477L46.0703 42.5323L46.5953 43.4529C46.3877 43.5801 46.2453 43.8399 46.0946 44.032L45.1851 45.1833L44.0329 46.566C43.8292 46.8019 43.5605 47.0511 43.3977 47.3137C43.2454 47.2035 43.0647 47.0414 42.8785 47.0029C42.6168 46.9487 42.3604 46.8668 42.0965 46.8223C41.7715 46.7676 41.4169 46.7689 41.087 46.7477Z" fill="#CA9268"/>
<path d="M27.7721 4.42473C27.6941 4.3707 27.6094 4.30736 27.5142 4.29019C27.3173 4.25467 27.0878 4.31675 26.8945 4.35901C26.2197 4.50666 25.5578 4.77784 24.9165 5.03209C24.6644 5.13206 24.2679 5.34945 23.9941 5.26787C23.898 5.2392 23.7936 5.15816 23.7062 5.10689C23.2703 4.85119 23.0768 4.62589 22.8376 4.18685C23.7954 4.16373 24.7656 4.36254 25.7242 4.28102C25.995 4.25798 26.2681 4.2097 26.5353 4.16162C26.7284 4.12688 26.9419 4.0998 27.1013 3.97424C27.2375 3.86701 27.3514 3.68779 27.4656 3.55448L30.6083 3.55083C31.1034 3.55132 31.6424 3.5092 32.133 3.56483C32.8868 3.65029 33.6593 3.85862 34.3877 4.06834L34.1959 4.33625C33.5884 4.50497 32.831 4.4548 32.1986 4.48875L30.055 4.66735L27.8422 5.0458C27.9031 4.80006 27.8769 4.65077 27.7721 4.42473Z" fill="url(#paint1_linear_4_40)"/>
<path d="M27.7721 4.42468C28.0157 4.43555 28.221 4.53658 28.459 4.57744L28.5054 4.58634C28.9668 4.67049 29.5383 4.64901 30.0059 4.61008C30.0549 4.65014 30.0441 4.62742 30.055 4.6673L27.8422 5.04575C27.9031 4.80001 27.8769 4.65072 27.7721 4.42468Z" fill="#B76A44"/>
<path d="M49.503 13.635C49.8715 13.8221 51.9106 14.7719 51.9884 14.9765C51.9169 15.6303 51.6138 16.3054 51.0965 16.7236L50.9101 16.8666C50.7834 16.6966 50.6444 16.4775 50.4141 16.4508C50.3081 16.4385 50.2051 16.4467 50.1061 16.4883C49.789 16.6215 49.5182 16.8701 49.2181 17.0376C48.8207 17.2593 48.3763 17.4048 47.9526 17.5684C47.9975 17.0848 48.0968 16.5221 47.7666 16.1121C47.6723 15.995 47.4889 15.8961 47.3379 15.8907C47.2102 15.8862 47.0868 15.9112 46.9644 15.9446C47.1522 15.7387 47.4234 15.5707 47.6453 15.4015C48.1949 14.9823 48.8005 14.5232 49.232 13.9773L49.503 13.635Z" fill="#B76A44"/>
<path d="M56.7254 10.4603C56.9218 11.0309 56.8508 11.5667 56.5846 12.1039C56.1641 12.9526 55.3606 13.7273 54.4533 14.0226C53.9711 14.1795 53.4261 14.2434 52.9626 14.005L52.7989 13.9177C52.3112 13.678 51.7871 13.5455 51.52 13.0407L51.9008 12.5154L52.0271 12.5184C52.385 12.2766 52.8619 12.0958 53.2657 11.9398L55.583 11.0779C55.9878 10.9093 56.3844 10.7409 56.7254 10.4603Z" fill="#CA9268"/>
<path d="M52.0271 12.5184L52.0952 12.5314C52.7721 12.6389 54.2777 11.5449 54.7835 12.1624C54.8874 12.2891 54.9329 12.4357 54.9122 12.5986C54.8791 12.8576 54.6635 13.0659 54.4611 13.2109C54.2095 13.391 53.9024 13.5285 53.6076 13.6208C53.3406 13.7044 53.0341 13.7627 52.7989 13.9177C52.3112 13.678 51.7871 13.5455 51.52 13.0407L51.9008 12.5154L52.0271 12.5184Z" fill="#D2743F"/>
<path d="M22.8919 12.9463L24.4509 12.1484C24.6427 12.0404 24.8752 11.9338 25.0242 11.7703C25.405 11.3524 25.6585 10.7589 25.925 10.2656C26.3955 9.39458 27.1548 8.54711 27.952 7.96443C28.1791 7.79849 28.3769 7.64774 28.6502 7.56653C28.2015 8.18943 27.9324 8.815 27.7959 9.57029C27.7676 9.72681 27.7371 10.4522 27.6963 10.5163C27.6519 10.5862 27.4835 10.6922 27.4151 10.7498C27.2017 10.9296 26.9959 11.1133 26.8075 11.32L26.3496 11.8677C26.1243 12.12 25.8749 12.3493 25.6584 12.6096C25.189 13.174 24.7962 13.8075 24.5024 14.4802C24.3122 14.9158 24.1803 15.3742 24.0104 15.8178C23.3911 15.3451 22.7351 14.6793 22.3713 13.9821C22.6096 13.78 22.9294 13.5548 22.949 13.2097C22.9539 13.1236 22.9173 13.0278 22.8919 12.9463Z" fill="#B76A44"/>
<path d="M23.4056 0H24.0543H27.3251L28.2523 1.19523C28.4744 1.51826 28.6706 1.77114 28.9694 2.02465C29.041 2.08543 29.1373 2.12288 29.127 2.21967C29.0696 2.26528 29.0045 2.32323 28.9318 2.34084C28.7198 2.39223 28.4515 2.3719 28.2301 2.38389L26.2176 2.47947L24.4935 2.56461C24.216 2.57925 23.8542 2.63521 23.5853 2.57205C23.559 2.5505 23.556 2.55022 23.5328 2.51797C23.4505 2.40293 23.4297 2.22687 23.405 2.0918C23.2758 1.38769 23.2966 0.705136 23.4056 0Z" fill="#CA9268"/>
<path d="M23.4056 0H24.0543C23.7122 0.657579 23.5403 1.29967 23.7629 2.03283L23.959 2.51692C23.8937 2.58189 23.6827 2.56165 23.5853 2.57205C23.559 2.5505 23.556 2.55022 23.5328 2.51797C23.4505 2.40293 23.4297 2.22687 23.405 2.0918C23.2758 1.38769 23.2966 0.705136 23.4056 0Z" fill="#DC9F72"/>
<path d="M26.2176 2.4795C26.1126 2.4373 26.1671 2.4417 26.1105 2.37307C26.0013 2.24058 25.7942 2.11804 25.6651 1.98991C25.405 1.73178 25.2012 1.3653 25.2063 0.991503C25.2091 0.783245 25.2959 0.606047 25.4514 0.467431C25.6004 0.334648 25.9137 0.121739 26.1085 0.105007C26.3408 0.0850598 26.6079 0.269506 26.7899 0.397772C27.1115 0.62439 27.8134 1.1966 28.2218 1.19637L28.2523 1.19525C28.4744 1.51829 28.6706 1.77117 28.9694 2.02468C29.041 2.08545 29.1373 2.1229 29.127 2.2197C29.0696 2.26531 29.0045 2.32326 28.9318 2.34087C28.7199 2.39225 28.4515 2.37193 28.2301 2.38392L26.2176 2.4795Z" fill="#D2743F"/>
<path d="M28.711 43.9287L30.4021 46.67L30.375 46.7216L30.2465 46.7522C29.3587 46.7788 28.2107 46.7679 27.5524 47.4548C26.9932 48.0383 26.9338 48.8647 26.9496 49.6319C26.5235 49.524 26.176 49.406 25.732 49.4693L25.727 49.4018C25.699 49.0494 25.6073 48.7163 25.5228 48.3747C25.454 48.0967 25.1377 47.7251 24.9147 47.5542C25.0893 47.277 25.3884 47.0119 25.6202 46.7755C26.5976 45.7785 27.6594 44.8466 28.711 43.9287Z" fill="#DC9F72"/>
<path d="M23.5677 7.12707C24.1017 6.76986 24.6686 6.52276 25.2543 6.26572L27.1717 5.43799C27.2967 5.58991 27.3739 5.72195 27.3495 5.92578C27.3268 6.11617 27.1684 6.28463 27.0209 6.39493C26.6405 6.67932 26.1919 6.88557 25.7942 7.1488C25.2682 7.49684 23.7163 8.65995 23.589 9.28123C23.4965 9.73278 23.6725 10.1372 23.2382 10.459C22.8774 10.7263 22.4038 10.8669 21.9987 11.0527C21.5334 11.2662 21.0748 11.5133 20.6367 11.7775C20.5047 11.8571 20.3296 11.9368 20.2265 12.0517C20.2852 12.1721 20.3428 12.2952 20.4246 12.4022C20.5103 12.5141 20.6511 12.6074 20.6593 12.7486L20.4967 12.6906C19.9734 12.489 19.5273 12.0539 19.3049 11.5407C19.2384 11.3872 19.1142 11.0843 19.1777 10.9228C19.4446 10.7764 19.6596 10.7811 19.9458 10.7738C20.0904 10.77 20.2684 10.6601 20.3979 10.5986C20.7167 10.4473 21.0212 10.2646 21.3245 10.0843C21.6106 9.91426 21.9288 9.73109 22.1638 9.4914C22.3497 9.30184 22.3319 9.11607 22.3248 8.87173C22.3549 8.82139 22.3455 8.8408 22.3668 8.79256C22.5129 8.45998 22.7016 8.16875 22.9339 7.88996C23.135 7.64858 23.4667 7.4247 23.5677 7.12707Z" fill="#DC9F72"/>
<path d="M52.5443 18.8944C52.7394 18.7694 52.9639 18.6766 53.1724 18.5753C53.3779 18.4756 53.5946 18.3514 53.8161 18.2933C54.0914 18.221 54.3959 18.2053 54.6791 18.1719C55.3089 18.0976 55.9301 18.0408 56.5645 18.0267C57.0874 18.7439 57.3259 19.5966 57.1892 20.4793C57.1149 20.9592 57.0489 21.5408 56.8797 21.9939C56.5137 22.974 55.514 23.8731 54.6877 24.4664L54.5214 24.5763C54.5452 23.7817 54.6121 23.008 54.4645 22.2188C54.2132 20.8757 53.6316 19.7511 52.5443 18.8944Z" fill="#988D77"/>
<path d="M43.6478 28.6073C43.5872 28.3499 43.6044 27.9952 43.6136 27.7289C43.6728 26.0149 44.2411 24.1563 45.0372 22.6407C45.8377 21.1163 47.0187 19.6793 48.7238 19.1659C49.5753 18.9094 50.4215 19.1385 51.1844 19.5441C50.9445 19.5638 50.6936 19.5748 50.4606 19.6371C49.4269 19.9135 48.4768 20.7396 47.7942 21.5387C46.2785 23.3132 45.1092 25.8629 45.3264 28.2446L45.388 28.6905L44.9473 28.8428C44.8062 28.8859 44.5395 28.9722 44.3942 28.9537C44.1825 28.9268 43.8416 28.71 43.6478 28.6073Z" fill="#5C5A58"/>
<path d="M32.6909 1.41748C34.026 1.65809 35.3509 1.94766 36.5998 2.49417C37.5183 2.89617 38.422 3.3746 39.2622 3.92322L40.4068 4.70896L43.6289 6.57736L44.7437 7.33144C44.962 7.49443 45.1644 7.67211 45.394 7.82047C45.8218 8.09672 46.3023 8.31976 46.7418 8.58406C47.4926 9.03561 48.2001 9.53806 48.9061 10.0556C49.3696 10.3955 49.8587 10.739 50.2808 11.1291C50.0538 11.5124 49.7696 11.731 49.4608 12.038L47.67 11.1454C47.2934 10.9533 46.8856 10.7682 46.5336 10.5342C46.066 10.2233 45.727 9.78866 45.3194 9.4122L43.9163 8.22497C42.8522 7.32912 41.7804 6.43986 40.6251 5.66232C38.1025 3.96447 35.2819 2.89951 32.2832 2.43805C32.3557 2.12087 32.4801 1.66519 32.6909 1.41748Z" fill="#786658"/>
<path d="M26.1906 36.0067L26.2357 36.034C26.4085 36.1333 26.6774 36.1684 26.8719 36.2171C28.5797 36.6441 30.3754 36.7754 32.131 36.7322L32.1293 38.1335C31.6927 37.9955 31.2238 37.8227 30.7838 38.0428C30.5916 38.1389 30.4562 38.3009 30.3421 38.4786C30.2789 38.5771 30.2196 38.7185 30.1113 38.7767C29.8889 38.8965 26.5841 38.8413 26.0492 38.9015C25.1149 39.0065 24.1484 39.3587 23.2636 39.6653C23.0005 39.7564 22.7188 39.8239 22.4662 39.9403L22.2717 40.0602C22.2082 40.0949 22.0355 40.1803 21.966 40.1821C21.8524 40.1849 21.5786 40.032 21.4669 39.9874L20.3834 39.6045L17.8458 38.887L19.3127 37.4912L19.7102 37.841C20.5481 38.4839 21.8709 38.7628 22.9043 38.638C23.1669 38.6063 23.4082 38.5448 23.6574 38.4568C24.6975 38.0892 25.4087 37.2813 25.8734 36.3113C25.964 36.1222 25.9998 36.0746 26.1906 36.0067Z" fill="#49EDFD"/>
<path d="M33.3731 36.8152C33.6902 36.7675 34.0269 36.7868 34.3477 36.7733C34.7907 36.7547 35.2456 36.7017 35.6836 36.6342C36.2939 36.5402 36.9121 36.4454 37.5132 36.3028C37.7151 36.255 37.9062 36.1714 38.107 36.12C38.3662 36.0534 38.6383 36.0165 38.9031 35.9791L38.7803 37.1022C38.8192 37.6782 38.8761 38.2364 39.0034 38.8006C39.068 39.0869 39.1878 39.3858 39.2266 39.6738C39.2371 39.7515 39.2364 39.8088 39.1838 39.8701C39.0391 40.039 38.7105 40.1599 38.509 40.2619C37.7046 40.669 36.8865 41.0305 36.039 41.3381C35.6827 41.4675 35.3168 41.6124 34.9436 41.6832C34.6921 41.5548 33.1408 40.509 33.0794 40.3167C33.0186 40.1265 33.1866 39.7376 33.235 39.5405C33.2868 39.3298 33.3221 39.116 33.3572 38.902C33.4604 38.2215 33.5346 37.4908 33.3731 36.8152Z" fill="#F5C68D"/>
<path d="M33.3731 36.8152C33.6902 36.7675 34.0269 36.7868 34.3477 36.7733C34.7907 36.7547 35.2456 36.7017 35.6836 36.6342C36.2939 36.5402 36.9121 36.4454 37.5132 36.3028C37.7151 36.255 37.9062 36.1714 38.107 36.12C38.3662 36.0534 38.6383 36.0165 38.9031 35.9791L38.7803 37.1022C37.6036 37.3846 36.4859 37.7952 35.353 38.2152C34.7042 38.4557 34.0318 38.7496 33.3572 38.902C33.4604 38.2215 33.5346 37.4908 33.3731 36.8152Z" fill="#DC9F72"/>
<path d="M45.8123 33.2982C46.069 33.2789 46.2797 33.326 46.5276 33.3884C46.479 33.7415 46.4418 34.0967 46.4818 34.4532C46.5727 35.262 47.1819 35.8222 47.7852 36.2906C46.97 37.0954 46.2916 37.9952 45.9355 39.0965C45.7907 39.5442 45.7235 39.9808 45.6571 40.4446L42.9923 39.6212C42.7447 39.5163 42.2516 39.3724 42.0645 39.1968C41.8779 39.0218 41.7781 38.8184 41.5423 38.6901C41.2657 38.5396 40.9398 38.4327 40.6471 38.3158C40.4762 38.2475 40.2944 38.1989 40.1884 38.0391C40.1444 37.4358 40.1048 36.8492 40.1439 36.2435C40.1579 36.0247 40.1593 35.7917 40.2295 35.5832C40.2597 35.5473 40.2803 35.5206 40.3225 35.4982C40.607 35.3468 41.0143 35.2664 41.3241 35.1609L44.2693 34.1202C44.536 34.011 44.8041 33.8805 45.0527 33.7349C45.3061 33.5864 45.5404 33.4135 45.8123 33.2982Z" fill="#49EDFD"/>
<path d="M20.5914 17.2696L20.9105 17.9092C20.7474 18.2707 20.4757 18.6108 20.2646 18.9486C20.1279 19.1673 19.7853 19.8888 19.5659 19.9815C19.3483 20.0734 18.4369 19.681 18.2045 19.575C16.6366 18.86 15.4296 17.5747 14.832 15.9569C14.5383 15.1618 14.4261 14.3138 14.404 13.4701C14.3601 11.7955 14.6831 10.1661 15.3901 8.64413C16.1764 6.95136 17.1782 5.68685 18.9026 4.89809C19.4796 4.63415 20.1026 4.43835 20.6994 4.22168C20.841 5.56843 20.6168 6.71836 20.188 7.99479C20.1181 8.20284 20.0409 8.56966 19.8989 8.7363C19.6458 9.03345 19.3217 9.25472 19.1276 9.60178C18.727 9.70444 18.2192 9.77236 17.9819 10.1552C17.7536 10.5233 17.8715 11.1947 17.9772 11.5977C18.0127 11.7334 18.0743 11.8766 18.0977 12.0134C17.875 13.3158 18.5439 14.8399 19.2833 15.8795C19.5257 16.2204 19.8006 16.5352 20.0918 16.835C20.2439 16.9915 20.3991 17.1626 20.5914 17.2696Z" fill="#988D77"/>
<path d="M51.1844 19.5441C52.095 20.0002 52.7179 20.7695 53.0334 21.7313C53.3024 22.5515 53.3001 23.4101 53.2038 24.2578C53.0469 25.6381 52.6535 26.9206 52.0202 28.1589C51.5586 29.0617 50.9803 29.8902 50.3164 30.6549C50.0009 31.0182 49.677 31.3897 49.2373 31.6025L49.0859 31.6337C48.279 31.7964 47.4937 31.771 46.7927 31.2852C45.9216 30.6816 45.5762 29.6856 45.388 28.6905L45.3264 28.2446C45.1091 25.8629 46.2785 23.3132 47.7942 21.5387C48.4768 20.7396 49.4269 19.9135 50.4606 19.6371C50.6936 19.5748 50.9445 19.5638 51.1844 19.5441Z" fill="#F56665"/>
<path d="M48.1656 22.7163C48.2678 22.7314 48.3573 22.7451 48.436 22.8175C48.5437 22.9165 48.5717 23.0265 48.5488 23.1679C48.5013 23.4608 48.3237 23.7882 48.2472 24.0871C47.9534 25.2364 47.7041 26.4818 47.7438 27.6717C48.5286 27.0871 49.003 26.1916 49.3611 25.3016C49.4551 25.0678 49.5093 24.7674 49.6432 24.5566C49.7102 24.4511 49.8005 24.3811 49.9219 24.3539C50.0399 24.3275 50.1711 24.3441 50.271 24.4147C50.3587 24.4767 50.4241 24.5662 50.449 24.6712C50.4768 24.7886 50.447 24.964 50.4382 25.0846L50.3598 26.0203C50.3223 26.6711 50.3287 27.3045 50.4273 27.949C50.9941 27.1102 51.3486 26.1154 51.5918 25.1377C51.6646 24.845 51.6781 24.4556 51.8115 24.1869C51.8918 24.025 51.9959 23.972 52.1615 23.9181L52.1974 23.9068C52.3067 23.9523 52.4043 23.996 52.48 24.0927C52.6261 24.2794 52.5834 24.5489 52.5606 24.7675C52.4455 25.8745 51.8243 27.6233 51.1372 28.4941C50.9556 28.7242 50.7047 28.9642 50.3965 28.9854C50.2038 28.9986 50.0351 28.9236 49.8949 28.7952C49.4799 28.4154 49.4733 27.6316 49.4416 27.1066C49.0962 27.6503 48.5921 28.3065 47.9707 28.5416C47.7688 28.6178 47.508 28.62 47.3126 28.5224C47.1032 28.4178 46.9816 28.196 46.914 27.9819C46.6296 27.0821 47.2924 23.8601 47.7512 23.0449C47.8555 22.8594 47.9644 22.7749 48.1656 22.7163Z" fill="#FEFEFE"/>
<path d="M32.8257 0H35.1279H42.6774C43.4768 0.755719 44.2961 1.45521 45.2109 2.06988C46.316 2.81232 47.5335 3.43346 48.6939 4.08696L50.5489 5.16393C50.7812 5.30541 51.0661 5.44359 51.2615 5.6327C51.5874 5.94816 51.7339 6.45352 51.7886 6.89062C51.9152 7.90151 51.8183 8.99754 51.574 9.9829C51.4879 10.3303 51.3853 10.7062 51.235 11.0311C51.1449 11.2589 51.0157 11.4664 50.892 11.6771L50.2808 11.1291C49.8587 10.739 49.3696 10.3955 48.9061 10.0556C48.2001 9.5381 47.4926 9.03565 46.7418 8.5841C46.3023 8.3198 45.8218 8.09677 45.394 7.82051C45.1644 7.67215 44.962 7.49447 44.7437 7.33148L43.6289 6.5774L40.4068 4.709L39.2622 3.92326C38.422 3.37464 37.5183 2.89621 36.5998 2.49421C35.351 1.9477 34.026 1.65813 32.6909 1.41752L31.3436 1.23834C31.5447 1.03814 31.7583 0.821637 31.9852 0.6523L32.8257 0Z" fill="#988D77"/>
<path d="M32.8257 0H35.1279C34.9399 0.338315 34.8018 0.753265 34.6945 1.12511C35.4985 1.32013 36.3039 1.58496 37.051 1.94242C38.3008 2.54037 39.441 3.30668 40.6164 4.03154L42.3797 5.10285L44.1593 6.13477C44.6828 6.46448 45.1532 6.86563 45.6707 7.19859C46.2728 7.58602 46.9342 7.89314 47.5455 8.2722C48.8423 9.07629 50.0832 10.0309 51.235 11.0311C51.1449 11.2589 51.0157 11.4664 50.892 11.6771L50.2808 11.1291C49.8587 10.739 49.3696 10.3955 48.9061 10.0556C48.2001 9.5381 47.4926 9.03565 46.7418 8.5841C46.3023 8.3198 45.8218 8.09677 45.394 7.82051C45.1644 7.67215 44.962 7.49447 44.7437 7.33148L43.6289 6.5774L40.4068 4.709L39.2622 3.92326C38.422 3.37464 37.5183 2.89621 36.5998 2.49421C35.351 1.9477 34.026 1.65813 32.6909 1.41752L31.3436 1.23834C31.5447 1.03814 31.7583 0.821637 31.9852 0.6523L32.8257 0Z" fill="#46454A"/>
<path d="M32.8258 0H35.1279C34.9399 0.338315 34.8018 0.753265 34.6945 1.12511C34.4252 1.04109 34.1357 0.994992 33.8593 0.935993C33.2419 0.804263 32.615 0.699884 31.9852 0.6523L32.8258 0Z" fill="#887663"/>
<path d="M34.3877 4.06836L35.042 4.26253C36.5562 4.76677 37.9919 5.4283 39.3443 6.27718C40.9627 7.29311 42.4594 8.55585 43.9322 9.76825C44.359 10.1196 44.7101 10.5714 45.1463 10.9046C45.9925 11.5511 46.9705 12.0434 47.8727 12.6073C48.1148 12.7586 48.3024 12.959 48.5309 13.1241C48.8153 13.3295 49.1886 13.4766 49.5029 13.6351L49.232 13.9774C48.8005 14.5233 48.1949 14.9823 47.6452 15.4015C47.4234 15.5708 47.1521 15.7388 46.9644 15.9446C46.7195 16.0629 46.5033 16.2388 46.261 16.3651C45.5177 16.7524 44.6815 16.7634 43.8657 16.6921C42.9039 16.6081 41.8012 16.3618 40.9567 15.8776C40.2595 15.4778 39.6883 14.9343 39.1776 14.3187C39.0457 14.1598 38.8983 13.993 38.7949 13.8133C38.6992 13.6468 38.6362 13.4369 38.5066 13.2943C38.4071 13.185 38.2992 13.1505 38.155 13.1456C37.9938 13.14 37.8648 13.1729 37.7466 13.287C37.648 13.3822 37.6197 13.4738 37.6205 13.6077C37.6237 14.1598 37.5838 14.6315 37.7435 15.1714C37.6683 15.3364 37.6356 15.5055 37.5336 15.6621C37.4612 15.7733 37.3626 15.8638 37.2293 15.8885C36.7456 15.9784 35.512 14.7791 35.1785 14.4025C34.9571 14.1526 34.7373 13.7729 34.4633 13.5908C34.2939 13.4781 34.1052 13.4516 33.9082 13.5018C33.7034 13.554 33.5845 13.7158 33.4792 13.8855L33.3549 14.6397C32.5678 14.504 31.813 14.1639 31.1718 13.6869C30.3127 13.0478 29.3991 12.018 29.2423 10.9243C29.1872 10.7061 29.1593 10.4915 29.1412 10.2675C29.1042 10.0566 29.1123 9.95627 28.9841 9.76909C29.0547 9.48651 29.1327 9.22769 29.2411 8.95755C29.3195 8.78507 29.4036 8.62785 29.5055 8.46782C29.6574 8.15985 30.0959 7.79289 30.1365 7.4743C30.1571 7.31244 30.1146 7.19235 30.0059 7.07226C29.9142 6.97098 29.7932 6.89742 29.6543 6.8926C29.2756 6.87945 28.9038 7.32144 28.6502 7.56655C28.3769 7.64776 28.1791 7.79852 27.952 7.96445C27.1548 8.54713 26.3955 9.39461 25.925 10.2656C25.6585 10.7589 25.405 11.3524 25.0242 11.7703C24.8752 11.9338 24.6427 12.0405 24.4509 12.1484L22.8919 12.9464C22.5194 12.4586 22.1614 12.7359 21.6855 12.8234C21.3481 12.8854 20.9816 12.8692 20.6593 12.7487C20.6511 12.6074 20.5103 12.5142 20.4246 12.4022C20.3427 12.2953 20.2852 12.1722 20.2264 12.0517C20.3296 11.9368 20.5047 11.8572 20.6367 11.7776C21.0748 11.5133 21.5334 11.2662 21.9987 11.0527C22.4038 10.867 22.8774 10.7263 23.2382 10.459C23.6725 10.1372 23.4965 9.73281 23.589 9.28126C23.7163 8.65998 25.2682 7.49687 25.7941 7.14883C26.1919 6.8856 26.6405 6.67935 27.0209 6.39496C27.1684 6.28466 27.3267 6.1162 27.3495 5.92581C27.3738 5.72198 27.2967 5.58994 27.1717 5.43802C27.4261 5.33785 27.6466 5.24305 27.8422 5.04582L30.055 4.66737L32.1985 4.48877C32.831 4.45482 33.5883 4.50499 34.1958 4.33627L34.3877 4.06836Z" fill="#CA9268"/>
<path d="M34.3877 4.06836L35.042 4.26253C34.7643 4.34541 34.4806 4.31427 34.1959 4.33627L34.3877 4.06836Z" fill="#B76A44"/>
<path d="M40.3236 10.6903C40.4259 10.6843 40.5358 10.6725 40.6362 10.6979C40.8506 10.752 41.0517 10.9265 41.1516 11.1229C41.2248 11.2668 41.248 11.4261 41.1826 11.5787C41.1181 11.7293 40.9657 11.8161 40.8243 11.8808C40.7149 11.8844 40.5946 11.8953 40.4863 11.8781C40.2968 11.8481 40.1107 11.7221 40.004 11.5649C39.9183 11.4387 39.8774 11.2805 39.9161 11.1299C39.9745 10.9027 40.1275 10.7959 40.3236 10.6903Z" fill="#DC9F72"/>
<path d="M32.7641 9.21623C32.8925 9.2021 33.0217 9.19057 33.1441 9.24056C33.2763 9.29456 33.3864 9.41465 33.4396 9.54593C33.5309 9.77121 33.6263 10.2798 33.528 10.5056C33.4402 10.707 33.2629 10.7959 33.0661 10.8631C33.0076 10.8646 32.9465 10.866 32.8887 10.8557C32.6998 10.822 32.5203 10.6897 32.418 10.5292C32.2701 10.2973 32.2626 9.97202 32.3348 9.71285C32.4016 9.47365 32.5568 9.33872 32.7641 9.21623Z" fill="#DC9F72"/>
<path d="M24.823 8.12737C24.9086 8.12358 24.9904 8.12688 25.0743 8.14516C25.2461 8.18257 25.3869 8.29324 25.4764 8.44245C25.6075 8.66112 25.6124 8.88921 25.5418 9.13087C25.4411 9.47632 25.2867 9.67411 24.9751 9.84546C24.8689 9.87183 24.7374 9.89025 24.6301 9.86241C24.486 9.82493 24.3484 9.70118 24.2744 9.5742C24.1736 9.40109 24.2179 9.14079 24.2716 8.96016L24.4149 8.47957C24.4955 8.27475 24.6303 8.21077 24.823 8.12737Z" fill="#DC9F72"/>
<path d="M37.2299 9.29175C37.4701 9.3101 37.6636 9.33844 37.8671 9.48342C38.1264 9.66827 38.2268 9.89447 38.2781 10.1996C38.3332 10.5273 38.3874 10.845 38.1725 11.1288C38.0002 11.3565 37.8057 11.4142 37.5324 11.4474C37.3428 11.4212 37.1864 11.3828 37.0195 11.2823C36.7185 11.101 36.4726 10.7557 36.4027 10.4081C36.3534 10.1621 36.4015 9.89222 36.5458 9.68634C36.7215 9.43575 36.9343 9.33865 37.2299 9.29175Z" fill="#DC9F72"/>
<path d="M33.4793 13.8855C33.2772 13.6457 33.1965 13.2565 33.1472 12.9551L33.1381 12.9017C33.0962 12.6404 33.0892 12.345 33.2571 12.1241C33.3728 11.972 33.5608 11.8675 33.7523 11.8544C33.914 11.8433 34.0802 11.9142 34.1973 12.0224C34.5878 12.3837 34.5217 12.9785 34.7388 13.4256C34.8409 13.6356 35.0372 13.826 35.208 13.9824C35.8538 14.5738 36.8637 15.088 37.7436 15.1714C37.6683 15.3364 37.6356 15.5055 37.5336 15.6621C37.4613 15.7733 37.3627 15.8638 37.2293 15.8885C36.7456 15.9784 35.512 14.7791 35.1785 14.4025C34.9572 14.1526 34.7373 13.7729 34.4633 13.5908C34.2939 13.4781 34.1052 13.4516 33.9082 13.5018C33.7034 13.554 33.5846 13.7158 33.4793 13.8855Z" fill="#B76A44"/>
<path d="M29.5055 8.46784L29.5329 8.4561C29.6164 8.41946 29.6851 8.3784 29.7609 8.32799C29.9562 8.19805 30.1993 8.14799 30.4304 8.20649C30.6753 8.26857 30.895 8.4819 31.0112 8.69945C31.348 9.33029 31.4229 10.4999 31.1936 11.1728C31.0917 11.4714 30.9256 11.7348 30.6287 11.869C30.4686 11.9414 30.2229 11.9526 30.0586 11.8848C29.7734 11.7673 29.5613 11.5203 29.4241 11.25C29.3685 11.1404 29.3133 11.0242 29.2423 10.9243C29.1872 10.7062 29.1593 10.4915 29.1411 10.2675C29.1042 10.0566 29.1123 9.95628 28.9841 9.76911C29.0547 9.48653 29.1327 9.22771 29.2411 8.95757C29.3195 8.78509 29.4036 8.62787 29.5055 8.46784Z" fill="#DC9F72"/>
<path d="M29.2411 8.95752C29.2418 9.40161 29.1537 9.82433 29.1411 10.2674C29.1042 10.0566 29.1123 9.95624 28.9841 9.76907C29.0547 9.48648 29.1327 9.22766 29.2411 8.95752Z" fill="#CA9268"/>
<path d="M27.4228 14.3508C27.4382 14.2609 27.3479 14.1975 27.3146 14.11C27.4731 13.9165 27.6569 13.6185 27.8607 13.4812C27.9718 13.4062 28.0707 13.2626 28.1731 13.1678L28.2568 13.3065C28.2921 13.3783 28.3055 13.412 28.3688 13.4625L28.4251 13.5059C28.6495 13.7969 28.8392 14.1031 29.0807 14.3832C29.6312 15.0216 30.2931 15.5509 31.0154 15.9821C31.2903 16.1461 31.6064 16.3292 31.9169 16.411L32.8974 16.7673L33.3132 16.821C33.5014 16.8549 33.6812 16.881 33.873 16.8826C34.1788 16.8853 34.4942 16.8335 34.7695 16.9828C35.7073 17.4912 37.1343 18.0174 38.1879 17.6581C38.3384 17.6068 38.4807 17.5319 38.6078 17.4367C38.6692 17.3907 38.8573 17.2252 38.9238 17.2098C38.9852 17.1954 39.4935 17.4394 39.571 17.4711L40.8472 17.9217C42.2317 18.3407 43.6258 18.5029 45.066 18.5774L45.1609 18.6393L44.8565 19.7068L44.5733 20.5263C44.4989 20.7288 44.4059 20.9176 44.3951 21.135L44.0821 21.6685C43.4233 22.9032 42.8764 24.214 42.5692 25.5835L42.3718 26.7553L42.1804 26.7499L42.1585 26.7593C41.9225 28.1425 41.9071 29.5101 42.3175 30.8621C42.3877 31.0932 42.3386 31.2954 42.2864 31.524C42.1732 32.0192 42.0009 32.5193 41.753 32.9642L41.1205 33.8953L39.2599 34.4625L38.9031 35.9791C38.6382 36.0165 38.3661 36.0534 38.107 36.12C37.9061 36.1714 37.715 36.255 37.5132 36.3028C36.9121 36.4454 36.2939 36.5402 35.6836 36.6342C35.2456 36.7017 34.7907 36.7547 34.3476 36.7733C34.0269 36.7868 33.6901 36.7675 33.3731 36.8152C33.2354 36.3639 33.1572 35.9069 33.1105 35.4379C30.927 35.3685 28.6766 35.4022 26.5718 34.733L26.0234 34.5575C25.8588 34.3283 25.4686 34.2091 25.2246 34.0634C24.6786 33.7373 23.9444 33.2781 23.5734 32.7582C23.4299 32.5571 23.3352 32.2914 23.2402 32.0636C22.8479 31.1232 22.5798 30.1023 22.4199 29.0967C22.3788 28.8382 22.3161 28.5879 22.3203 28.3242C22.3243 28.0624 22.3743 27.791 22.4086 27.5316L22.6927 25.779L22.681 25.7551L22.0135 24.9531L22.8064 22.2805C22.9372 22.2631 23.0873 22.1259 23.2037 22.0605C23.3412 21.9834 23.4886 21.9346 23.6388 21.8888L23.6668 21.8782C23.7082 21.6031 23.837 21.2963 23.92 21.0277L25.1138 17.7064C25.2841 17.2892 25.4494 16.8286 25.67 16.4377C25.8934 16.0419 26.1881 15.6827 26.4709 15.3295L27.2826 14.2635C27.3431 14.2855 27.3733 14.3109 27.4228 14.3508Z" fill="#FEE4B3"/>
<path d="M26.5718 34.733C26.8009 34.6714 27.0522 34.7326 27.2826 34.7723L28.2525 34.9268L30.3753 35.1742C31.8875 35.2768 33.3782 35.2846 34.8895 35.1496C35.897 35.0596 36.893 34.894 37.8896 34.7257C38.0237 34.7031 38.128 34.707 38.2615 34.7317C37.4181 35.0025 36.6036 35.1204 35.7315 35.2383C35.2386 35.3049 34.727 35.4159 34.2334 35.4485C33.8638 35.4729 33.481 35.4462 33.1105 35.4379C30.927 35.3685 28.6766 35.4022 26.5718 34.733Z" fill="#F5C68D"/>
<path d="M26.6568 19.5545C26.8653 19.5387 27.0695 19.5242 27.2668 19.6058C27.5698 19.7311 27.8118 19.9902 27.9205 20.3003C28.0107 20.5571 27.9474 20.9372 27.8309 21.1721C27.6706 21.4954 27.4177 21.6738 27.0846 21.7888C26.875 21.8461 26.6244 21.8523 26.418 21.7786C26.1556 21.6848 25.9875 21.5074 25.8794 21.2519C25.7498 20.946 25.7772 20.5175 25.9034 20.2148C26.0565 19.8475 26.3062 19.6923 26.6568 19.5545Z" fill="#2A130E"/>
<path d="M27.4228 14.3508C27.4382 14.2609 27.3479 14.1975 27.3146 14.11C27.4731 13.9165 27.6569 13.6185 27.8608 13.4812C27.9718 13.4062 28.0707 13.2626 28.1732 13.1678L28.2568 13.3065C28.2921 13.3783 28.3055 13.412 28.3688 13.4625L28.4252 13.5059C28.6495 13.7969 28.8392 14.1031 29.0807 14.3832C29.6312 15.0216 30.2931 15.5509 31.0155 15.9821C31.2903 16.1461 31.6064 16.3292 31.9169 16.411C31.8522 16.5269 31.7938 16.6437 31.7012 16.7402C31.4053 16.6111 31.0363 16.5615 30.7232 16.4427C29.8174 16.0988 28.9147 15.5672 28.1266 15.0106C28.0247 14.9387 27.9438 14.8404 27.8404 14.7742C27.658 14.6573 27.5263 14.5448 27.4228 14.3508Z" fill="#DC9F72"/>
<path d="M38.9117 19.3749C39.2028 19.36 39.4586 19.3608 39.7224 19.5043C40.0056 19.6583 40.2213 19.917 40.3112 20.2266C40.3962 20.5192 40.3692 20.902 40.214 21.1674C40.0397 21.4652 39.785 21.5811 39.4671 21.6672C39.1494 21.7051 38.8147 21.6791 38.5239 21.5364C38.2763 21.4149 38.1001 21.226 38.0203 20.9597C37.9252 20.6424 37.9733 20.2222 38.1383 19.934C38.3211 19.6146 38.5715 19.4716 38.9117 19.3749Z" fill="#2A130E"/>
<path d="M38.2616 34.7318L39.2599 34.4625L38.9032 35.9792C38.6383 36.0166 38.3662 36.0535 38.107 36.12C37.9062 36.1715 37.7151 36.255 37.5132 36.3029C36.9121 36.4454 36.2939 36.5403 35.6836 36.6343C35.2456 36.7017 34.7907 36.7548 34.3477 36.7733C34.0269 36.7868 33.6902 36.7676 33.3732 36.8153C33.2354 36.3639 33.1572 35.907 33.1105 35.438C33.4811 35.4463 33.8639 35.473 34.2335 35.4486C34.7271 35.416 35.2386 35.3049 35.7315 35.2384C36.6037 35.1204 37.4182 35.0026 38.2616 34.7318Z" fill="#B76A44"/>
<path d="M23.6668 21.8782C24.3588 21.768 25.0068 21.7912 25.6003 22.2196C26.0709 22.5594 26.3457 23.1509 26.442 23.7129L26.4509 23.7621C26.5004 24.0617 26.4993 24.4314 26.4151 24.723L26.4021 24.7722C26.2798 25.2173 25.8628 25.7862 25.4568 26.0081C24.8019 26.366 24.2141 26.4778 23.4878 26.2456C23.1859 26.149 22.9246 25.9962 22.6927 25.779L22.681 25.7551L22.0135 24.9531L22.8064 22.2804C22.9372 22.2631 23.0873 22.1259 23.2037 22.0605C23.3412 21.9834 23.4886 21.9345 23.6388 21.8887L23.6668 21.8782Z" fill="#FAB383"/>
<path d="M22.8064 22.2805C22.9372 22.2631 23.0873 22.126 23.2037 22.0606C23.3412 21.9834 23.4886 21.9346 23.6388 21.8888C23.5052 22.5814 23.2588 23.2647 23.0918 23.9525L22.8375 25.064C22.7907 25.288 22.7647 25.5431 22.681 25.7551L22.0135 24.9532L22.8064 22.2805Z" fill="#DC9F72"/>
<path d="M31.9169 16.411L32.8975 16.7673L32.8486 16.8332C32.6977 17.0767 32.587 17.4072 32.4546 17.6699L30.9028 20.9666C30.5442 21.8145 30.2136 22.6557 30.0363 23.5608C29.9931 23.7811 29.9254 24.0422 29.9707 24.2647C30.0256 24.3515 30.0632 24.402 30.1641 24.4422C30.3446 24.5144 30.5858 24.5261 30.7782 24.5569L31.8713 24.7512C32.1591 24.7999 32.5336 24.845 32.7982 24.9669C32.9575 25.0404 33.0975 25.1773 33.1486 25.3482C33.1885 25.4819 33.1806 25.682 33.1099 25.8047C33.0188 25.9628 32.88 26.0743 32.7026 26.1181L32.6602 26.1278L32.6222 26.138C32.3431 26.2049 31.8842 26.0857 31.6012 26.0423C30.8946 25.9339 29.8984 25.8838 29.2902 25.482C28.9536 25.2597 28.7586 24.92 28.682 24.5289C28.6232 24.2288 28.6478 23.892 28.6855 23.5898C28.83 22.4299 29.3415 21.347 29.8209 20.2942C30.3814 19.0632 30.963 17.8774 31.7012 16.7402C31.7938 16.6437 31.8522 16.5269 31.9169 16.411Z" fill="#B76A44"/>
<path d="M42.1586 26.7593C41.5544 26.7266 41.0023 26.5949 40.4808 26.2737C39.9339 25.9369 39.4806 25.3571 39.3404 24.7278L39.3262 24.6622C39.2602 24.3675 39.247 24.0483 39.2942 23.7491C39.4177 22.9656 39.7054 22.1491 40.3799 21.674C40.8112 21.3703 41.2003 21.1579 41.7233 21.0449L41.8928 21.0101C42.6957 20.8894 43.4521 21.1926 44.0822 21.6685C43.4233 22.9032 42.8765 24.2141 42.5693 25.5835L42.3719 26.7554L42.1804 26.7499L42.1586 26.7593Z" fill="#FAB383"/>
<path d="M42.1804 26.7499L42.1834 26.7159C42.224 26.4596 42.2895 26.1929 42.3659 25.9453C42.3893 25.8695 42.4121 25.7457 42.4503 25.6817C42.4674 25.6528 42.5406 25.6072 42.5693 25.5835L42.3719 26.7553L42.1804 26.7499Z" fill="#DC9F72"/>
<path d="M38.4934 25.9466C38.59 25.9435 38.6926 25.9361 38.7884 25.9502C38.9453 25.9733 39.0895 26.0898 39.1737 26.2201C39.3546 26.4998 39.2813 26.9704 39.2101 27.2832C38.9358 28.4897 38.1246 29.3035 37.0972 29.9437C35.2613 31.0876 32.9003 31.1225 30.846 30.6418C29.5715 30.3436 28.2226 29.813 27.5018 28.6603C27.2873 28.1935 27.1597 27.8062 27.2578 27.2881C27.29 27.1182 27.3813 26.9762 27.5335 26.8874C27.6693 26.8081 27.8406 26.8125 27.988 26.852C28.3594 26.9517 28.4051 27.7547 28.5915 28.0767C28.7523 28.3543 29.0519 28.5343 29.3269 28.6809C29.8583 28.9646 30.4021 29.1737 30.9867 29.3185C32.8075 29.7694 34.7947 29.7714 36.4354 28.7699C37.0591 28.3893 37.5441 27.9459 37.8254 27.2583C37.9276 27.0085 37.9786 26.7497 38.0465 26.4901C38.1127 26.2371 38.2269 26.0992 38.4512 25.9703L38.4934 25.9466Z" fill="#67291E"/>
<path d="M0 0H22.107C21.9653 0.94038 22.0381 1.81358 22.2836 2.72579C21.408 2.83747 20.6016 3.05293 19.7582 3.30931C19.2455 3.46514 18.7387 3.60555 18.2436 3.81445C17.1754 4.26529 16.2229 4.96858 15.5126 5.88867C14.415 7.31039 13.605 9.0232 13.2498 10.7864C13.1588 11.2378 13.125 11.6845 13.0621 12.1384C12.9821 13.5387 13.1074 14.8679 13.4905 16.2185C14.1405 18.1788 15.3652 19.6564 17.2204 20.581C17.8429 20.8912 18.4762 21.102 19.1453 21.2817C18.7279 22.7682 18.5307 24.2826 18.7321 25.8231C18.8172 26.4735 18.9702 27.1332 19.2967 27.7087C19.4338 27.9503 19.6108 28.1675 19.8502 28.3142C19.9416 28.3703 20.0987 28.4304 20.163 28.5157C20.2509 28.6323 20.2235 28.992 20.2372 29.1403C20.2685 29.4795 20.3489 29.8239 20.357 30.1634C20.1059 29.7929 19.9439 29.3097 19.7253 28.91C19.1624 27.8812 18.4354 26.9698 17.5915 26.1587C15.7781 24.4159 13.246 23.0142 10.6996 22.8962C10.0856 22.8677 9.45049 22.9631 8.84074 23.0359C7.51514 23.1942 6.20404 23.5663 5.05374 24.2573C4.70394 24.4675 2.6066 26.0269 2.47261 26.0312C2.42382 26.0327 2.31649 25.9688 2.27286 25.9464C2.07709 25.846 1.8822 25.7365 1.67335 25.6653C1.11823 25.4763 0.58052 25.448 0 25.459V13.3864V11.4244V9.31352V3.21178V0Z" fill="url(#paint2_linear_4_40)"/>
<path d="M0 11.4244L1.10531 11.4238C1.59311 11.4247 2.15774 11.3426 2.53415 11.7251C2.73727 11.9316 2.83288 12.174 2.81805 12.4654C2.80544 12.7131 2.6813 12.953 2.49691 13.1168C2.13413 13.439 1.60886 13.3874 1.15717 13.3879L0 13.3864V11.4244Z" fill="#FEFEFE"/>
<path d="M13.4905 16.2185L7.63336 16.2224L6.16746 16.2208C6.06084 16.2198 5.83312 16.2459 5.73908 16.2155C5.65093 16.1869 5.50537 16.0372 5.43495 15.969C4.96366 15.5124 4.71371 14.8962 4.71102 14.2392C4.7087 13.6756 4.92062 13.1053 5.3228 12.705C5.62519 12.4039 5.99909 12.1928 6.41613 12.1009C6.73124 12.0314 7.06249 12.046 7.38284 12.049L8.56739 12.0618L13.0621 12.1384C12.9821 13.5388 13.1074 14.8679 13.4905 16.2185Z" fill="#FEFEFE"/>
<path d="M0 3.21179L2.53249 3.32393C3.23918 3.35036 4.06456 3.29191 4.74485 3.49116C5.13281 3.6048 5.48099 3.82281 5.75153 4.12304C6.00834 4.40801 6.15649 4.73166 6.26557 5.09603C7.23966 5.13243 8.30763 5.02063 9.03895 5.7983C9.4673 6.2538 9.66157 6.79652 9.63675 7.41798C9.61502 7.9636 9.36007 8.50866 8.95528 8.87556C8.77472 9.0391 8.49909 9.25166 8.26003 9.2975C8.02364 9.34285 7.73452 9.31459 7.49229 9.31452L5.89998 9.31423L0 9.31353V3.21179Z" fill="#FEFEFE"/>
<path d="M44.4862 0H72V11.3917V13.8234V26.3805L71.7033 25.8874C70.9509 24.719 69.7125 23.9621 68.364 23.6801C66.9025 23.3745 65.4669 23.4842 64.1104 24.1333C63.804 24.2799 63.5226 24.4693 63.2399 24.6561C62.9286 24.0338 62.5797 23.4879 62.0391 23.038C60.9151 22.1027 59.5509 22.008 58.1566 22.1271C58.3063 21.5008 58.3792 20.8485 58.4062 20.2053C58.4202 19.8724 58.4344 19.5113 58.3734 19.1837C58.2964 18.7702 58.1515 18.4146 57.9739 18.0342C57.6437 17.4923 57.2695 17.0333 56.85 16.5585C56.3474 15.99 55.8998 15.528 55.2537 15.117C55.5308 14.9361 55.8216 14.7848 56.0918 14.5908C56.4732 14.317 56.786 14.0043 57.1055 13.6637C57.5168 13.1196 57.8208 12.5686 57.992 11.9043C58.1977 11.1056 58.0993 10.3215 57.6878 9.61137C57.2911 9.19463 56.9879 9.01941 56.4248 8.88321C56.3717 8.7783 56.2835 8.68823 56.2236 8.58452C56.0811 8.33794 56.0073 8.09044 55.9483 7.81411C55.62 7.8333 53.2327 7.90284 53.1239 7.83984L53.0956 7.50572C53.0922 7.11183 53.0462 6.69962 52.9529 6.31657C52.8341 5.82898 52.5608 5.13487 52.2154 4.77313C51.949 4.49411 51.5891 4.32569 51.2586 4.13675L50.3711 3.59871L48.3389 2.45065C46.9905 1.69703 45.703 0.962065 44.4862 0Z" fill="url(#paint3_linear_4_40)"/>
<path d="M72 11.3917V13.8234L69.136 13.8499C68.6601 13.8526 68.1321 13.8974 67.6605 13.8468C67.521 13.8318 67.3626 13.78 67.2372 13.7186C66.9335 13.5702 66.7173 13.2942 66.6203 12.9735C66.5317 12.6806 66.5822 12.3396 66.7266 12.074C66.8741 11.803 67.1376 11.5927 67.432 11.5021L67.4824 11.4873C67.7235 11.4133 67.9708 11.4224 68.2206 11.4183L69.2646 11.4074L72 11.3917Z" fill="#FEFEFE"/>
<path d="M57.1056 13.6637L60.9665 13.7429C61.5408 13.7573 62.1605 13.6936 62.7208 13.8274C63.132 13.9255 63.5219 14.1362 63.8142 14.4444C64.2291 14.8819 64.4277 15.4426 64.4039 16.0424C64.3813 16.6158 64.1199 17.1425 63.7013 17.5276C63.4264 17.7805 63.0794 17.9596 62.7144 18.0387C62.0617 18.1801 61.3234 18.095 60.6581 18.0785L57.9739 18.0342C57.6437 17.4924 57.2695 17.0333 56.85 16.5585C56.3474 15.99 55.8998 15.528 55.2537 15.1171C55.5308 14.9361 55.8216 14.7848 56.0918 14.5908C56.4732 14.317 56.7861 14.0043 57.1056 13.6637Z" fill="#FEFEFE"/>
<path d="M50.3711 3.59866C51.0479 3.51171 51.7612 3.54504 52.4442 3.53341L56.2676 3.47138L58.9559 3.41382C59.391 3.40769 59.8625 3.36904 60.293 3.43479L60.3538 3.44342C60.9103 3.52768 61.4198 3.85805 61.748 4.31205C61.9987 4.65885 62.108 5.02901 62.1561 5.44773L63.6424 5.48875C63.961 5.50166 64.2897 5.49721 64.5996 5.57757L64.6604 5.593C65.2203 5.74015 65.7041 6.09448 65.994 6.59803C66.2809 7.0961 66.3641 7.72532 66.2013 8.27911C66.0405 8.82614 65.6595 9.3056 65.1552 9.57433C64.886 9.71777 64.577 9.81368 64.2719 9.83779C63.8275 9.87302 63.3638 9.83245 62.9186 9.81522L61.0378 9.75996L58.9391 9.69436C58.5349 9.68121 58.0803 9.70603 57.6878 9.61132C57.2911 9.19458 56.9879 9.01936 56.4248 8.88316C56.3717 8.77825 56.2835 8.68818 56.2236 8.58447C56.0811 8.33789 56.0073 8.09039 55.9484 7.81406C55.62 7.83325 53.2327 7.90279 53.1239 7.83979L53.0956 7.50567C53.0922 7.11178 53.0462 6.69957 52.9529 6.31652C52.8341 5.82893 52.5608 5.13482 52.2155 4.77308C51.949 4.49406 51.5891 4.32564 51.2586 4.1367L50.3711 3.59866Z" fill="#FEFEFE"/>
<path d="M60.9419 23.8091C61.3015 24.0628 61.5933 24.3476 61.8173 24.729C61.9199 24.9195 62.012 25.1082 62.0845 25.3125C62.2343 25.7344 62.2912 26.1176 62.7705 26.262L62.8199 26.2606C63.5474 26.2324 64.0531 25.6151 64.6781 25.3084C66.3214 24.5019 68.6367 24.6761 70.0097 25.939C70.8195 26.6835 71.2167 27.6791 71.2477 28.7687C71.2561 29.0792 71.2167 29.403 71.1752 29.711C71.1942 29.9124 71.2041 30.0926 71.377 30.2266C71.4389 30.275 71.5134 30.2938 71.5873 30.3188C71.7307 30.3676 71.8734 30.4398 72 30.5242V31.443V37.8105V39.5606V46.587C71.8488 46.736 71.6899 46.8844 71.5155 47.0065C71.0747 47.3148 70.5755 47.4251 70.0447 47.4306C69.9085 47.432 69.7402 47.4462 69.6075 47.414C69.4226 47.369 69.3049 47.099 69.2166 46.9483L68.7736 46.1907L67.7878 44.6142C67.5526 44.2375 67.3632 43.8194 67.0773 43.4786L66.5749 42.6929C66.2541 42.2018 65.7878 41.3629 65.1723 41.2135C64.8085 41.1252 64.429 41.368 64.1375 41.5645L61.3178 43.8583L60.5945 44.4564C60.3557 44.6549 60.1474 44.8603 59.838 44.9381C59.6419 45.106 58.5332 45.9047 58.4961 46.0578C58.5198 46.1749 58.4247 46.2933 58.3687 46.3987C58.1808 46.537 57.9762 46.6644 57.7646 46.7634C57.6534 46.7285 57.5487 46.7294 57.4329 46.7277C57.0651 46.8666 56.8429 47.0808 56.5263 47.2981C56.234 47.4988 55.9091 47.6618 55.5687 47.7634C54.6724 47.2044 53.5315 47.0185 52.5052 46.8418C52.3342 46.5114 52.1357 45.98 52.2221 45.6036C52.2558 45.4568 52.3252 45.3206 52.3562 45.1719C52.3995 44.9645 52.3162 44.811 52.2027 44.6454C51.802 44.3618 51.3981 44.5198 50.9446 44.5393C50.163 44.5729 49.4396 44.2354 48.802 43.8223C48.5785 43.6774 48.3481 43.5421 48.1533 43.3586C47.4486 42.695 47.0177 42.0522 46.99 41.0624C46.954 39.7735 47.4025 38.4903 48.2948 37.5499C48.6513 37.1304 49.0291 36.8205 49.5125 36.5664C49.7781 36.4269 49.8896 36.291 49.9788 36.0064C49.9413 35.7654 49.8632 35.678 49.6864 35.516C49.6283 35.5089 49.5645 35.4781 49.5089 35.4587L49.5288 35.4421C49.5894 35.3558 49.5368 35.2781 49.4975 35.1914C49.4415 35.0682 49.3336 34.9759 49.2403 34.8808C49.09 34.7281 48.917 34.5748 48.8033 34.3922C48.602 34.0684 48.5819 33.7062 48.5443 33.3377L48.6785 33.3091C50.3553 32.9052 51.6161 31.3742 52.5036 29.9838L53.0951 28.9707L53.1266 28.9733C53.3521 28.9782 54.0947 28.7594 54.2457 28.61C54.3767 28.4806 54.3766 28.3496 54.3821 28.1738L54.3832 28.125C54.5758 27.858 54.6694 27.5429 54.804 27.2461C55.004 26.8045 55.2708 26.3791 55.5978 26.0199C56.4836 25.0474 57.7874 24.1638 59.1387 24.0912C59.6474 24.0638 60.1447 24.1643 60.6554 24.1436C60.7775 24.0394 60.8718 23.9587 60.9419 23.8091Z" fill="#67291E"/>
<path d="M57.1261 45.6604L58.4961 46.0578C58.5198 46.1749 58.4247 46.2934 58.3687 46.3988C58.1808 46.537 57.9762 46.6644 57.7646 46.7634C57.6534 46.7285 57.5487 46.7294 57.4329 46.7277C57.4465 46.6429 57.5248 46.4513 57.5178 46.3739C57.5151 46.3436 57.4506 46.2412 57.4339 46.2091L57.1261 45.6604Z" fill="#994D38"/>
<path d="M70.9699 36.1086C71.2174 36.3384 71.2519 36.7492 71.3503 37.0593C71.37 37.1222 71.3946 37.2417 71.429 37.2908C71.5479 37.461 71.834 37.6726 72 37.8104V39.5605C71.6034 39.542 71.3327 39.6549 70.9608 39.7404C71.1808 38.5175 71.1858 37.3311 70.9699 36.1086Z" fill="#B76A44"/>
<path d="M53.6284 43.3711L54.4181 44.1128C54.9595 44.5346 55.5013 44.9041 56.1153 45.2148C56.4453 45.3817 56.7908 45.5066 57.1261 45.6604L57.4339 46.2091C57.4506 46.2412 57.515 46.3436 57.5178 46.3739C57.5247 46.4513 57.4465 46.6429 57.4329 46.7277C57.0651 46.8666 56.8429 47.0808 56.5263 47.2981C56.2339 47.4988 55.909 47.6618 55.5687 47.7634C54.6724 47.2044 53.5315 47.0186 52.5051 46.8418C52.3341 46.5114 52.1357 45.98 52.2221 45.6037C52.2557 45.4568 52.3251 45.3206 52.3562 45.1719C52.3995 44.9645 52.3161 44.811 52.2027 44.6454C52.3162 44.6189 52.4254 44.5309 52.5234 44.4674C52.9523 44.1647 53.3229 43.7984 53.6284 43.3711Z" fill="#B76A44"/>
<path d="M53.6284 43.3711L54.4182 44.1128L53.7905 44.3032C53.5002 44.4063 52.9153 44.6949 52.6203 44.531L52.5234 44.4674C52.9523 44.1647 53.3229 43.7984 53.6284 43.3711Z" fill="#994D38"/>
<path d="M70.9608 39.7405C71.3327 39.655 71.6034 39.5421 72 39.5606V46.587C71.8488 46.7361 71.6899 46.8844 71.5155 47.0066C71.0747 47.3149 70.5755 47.4251 70.0447 47.4307C69.9085 47.4321 69.7401 47.4463 69.6075 47.4141C69.4225 47.369 69.3048 47.099 69.2166 46.9483L68.7736 46.1907L67.7878 44.6142L68.4776 44.1165C69.8746 42.9273 70.5579 41.5029 70.9608 39.7405Z" fill="#B76A44"/>
<path d="M67.7878 44.6142L68.4776 44.1165C68.4482 44.5094 68.4484 44.8561 68.5301 45.2444C68.5925 45.5408 68.8044 45.8924 68.7736 46.1907L67.7878 44.6142Z" fill="#994D38"/>
<path d="M49.6864 35.5161C49.9738 35.5392 50.084 35.6663 50.2651 35.8647L51.1523 35.4744L51.2593 35.4351C51.6902 35.2649 51.7719 34.7092 51.9352 34.3202C52.2914 33.4717 52.7524 32.6441 53.2771 31.8879L53.7444 31.2494C53.8818 31.0777 54.0541 30.9027 54.1395 30.6996C54.1636 31.2828 54.2247 31.7831 54.5098 32.3065C54.2059 32.6538 53.8441 32.9422 53.5422 33.293C52.4389 34.5747 51.873 36.0945 51.6659 37.7566C51.4436 39.5405 52.0047 41.3564 53.1118 42.7584L53.6284 43.3711C53.3229 43.7984 52.9523 44.1647 52.5234 44.4674C52.4254 44.5309 52.3162 44.6189 52.2027 44.6454C51.802 44.3619 51.3981 44.5198 50.9446 44.5393C50.163 44.5729 49.4396 44.2354 48.802 43.8223C48.5785 43.6774 48.3481 43.5421 48.1533 43.3586C47.4486 42.695 47.0177 42.0522 46.99 41.0625C46.954 39.7736 47.4025 38.4904 48.2948 37.5499C48.6513 37.1304 49.0291 36.8205 49.5125 36.5664C49.7781 36.4269 49.8896 36.291 49.9788 36.0064C49.9413 35.7654 49.8632 35.6781 49.6864 35.5161Z" fill="#B76A44"/>
<path d="M49.9788 36.0064L50.0098 35.9143C50.144 35.9557 50.2475 36.0071 50.3152 36.1373C50.3735 36.2493 50.3607 36.3836 50.3195 36.4988C50.2734 36.628 50.1652 36.7452 50.0818 36.8522L49.6401 37.4369C48.7749 38.6293 47.9332 40.2065 48.5649 41.6819C48.8398 42.3241 49.3305 42.8416 49.9609 43.1387C50.1541 43.2297 50.3967 43.3049 50.5591 43.4423C50.7161 43.575 50.7443 43.6722 50.7213 43.8732C50.6175 44.0222 50.5299 44.0925 50.3475 44.1295C49.7886 44.2432 49.216 43.9069 48.769 43.6118C48.4987 43.4334 48.212 43.1194 48.0263 42.8555C47.4726 42.0681 47.1548 41.0724 47.3052 40.1049C47.4014 39.486 47.6279 38.8967 47.9055 38.3383C48.0292 38.0896 48.2494 37.8212 48.2948 37.5499C48.6513 37.1304 49.0291 36.8205 49.5125 36.5664C49.7781 36.4269 49.8896 36.291 49.9788 36.0064Z" fill="#CA9268"/>
<path d="M60.9419 23.8091C61.3015 24.0628 61.5933 24.3476 61.8173 24.729C61.9199 24.9195 62.012 25.1082 62.0845 25.3125C62.2343 25.7344 62.2912 26.1176 62.7705 26.262L62.8199 26.2606C63.5474 26.2324 64.0531 25.6151 64.6781 25.3084C66.3214 24.5019 68.6367 24.6761 70.0097 25.939C70.8194 26.6835 71.2167 27.6791 71.2477 28.7687C71.2561 29.0792 71.2167 29.403 71.1752 29.711C71.1942 29.9124 71.2041 30.0926 71.377 30.2266C71.4389 30.275 71.5134 30.2938 71.5873 30.3188C71.7307 30.3676 71.8734 30.4398 72 30.5242V31.443V37.8105C71.8341 37.6727 71.5479 37.4611 71.4291 37.2909C71.3946 37.2418 71.37 37.1223 71.3503 37.0593C71.2519 36.7493 71.2174 36.3384 70.9699 36.1087C70.804 35.2695 70.4243 34.3842 69.9857 33.653C69.8157 33.3698 69.6046 33.1097 69.4548 32.8155L69.5058 32.7356C69.8563 32.1849 70.0795 31.6714 69.9223 31.0078C69.7404 30.2399 69.3502 29.2622 68.654 28.838C67.9996 28.4392 67.0514 28.2328 66.3026 28.422L66.2344 28.4397C65.9908 28.5008 65.753 28.5745 65.5269 28.6849C64.7562 29.0611 64.4588 29.7828 64.1933 30.5464C63.0659 29.9597 61.9698 29.696 60.6973 29.8496C60.4242 29.8825 60.045 29.9951 59.7832 29.9325C59.5818 29.7887 59.4576 29.3917 59.3245 29.1709C58.9173 28.4953 58.2986 28.0205 57.5307 27.8318C56.7625 27.6429 55.9788 27.7538 55.3057 28.1704C54.7598 28.5083 54.3524 29.1203 54.2134 29.7444L54.1989 29.812C54.1338 30.1077 54.139 30.3986 54.1395 30.6996C54.0541 30.9027 53.8818 31.0777 53.7444 31.2493L53.2771 31.8878C52.7524 32.6441 52.2914 33.4717 51.9352 34.3202C51.7719 34.7092 51.6902 35.2649 51.2593 35.4351L51.1523 35.4743L50.2651 35.8647C50.084 35.6663 49.9738 35.5392 49.6864 35.516C49.6283 35.5089 49.5645 35.4781 49.5089 35.4587L49.5288 35.4421C49.5894 35.3558 49.5368 35.2781 49.4975 35.1914C49.4415 35.0682 49.3336 34.9759 49.2403 34.8808C49.09 34.7281 48.917 34.5748 48.8033 34.3922C48.602 34.0684 48.5819 33.7062 48.5443 33.3377L48.6785 33.3091C50.3553 32.9052 51.6161 31.3742 52.5036 29.9838L53.0951 28.9707L53.1266 28.9733C53.3521 28.9782 54.0947 28.7594 54.2457 28.61C54.3767 28.4806 54.3766 28.3496 54.3821 28.1738L54.3832 28.125C54.5758 27.858 54.6694 27.5429 54.804 27.2461C55.004 26.8045 55.2708 26.3791 55.5978 26.0199C56.4836 25.0474 57.7874 24.1638 59.1387 24.0912C59.6474 24.0638 60.1447 24.1643 60.6554 24.1436C60.7775 24.0394 60.8718 23.9587 60.9419 23.8091Z" fill="#D2743F"/>
<path d="M72 31.4429L71.6548 31.4311C71.4867 31.4089 71.3313 31.2999 71.2308 31.1659C71.0128 30.8767 71.0508 30.4141 71.119 30.0761C71.1436 29.9544 71.1415 29.8284 71.1753 29.7109C71.1942 29.9124 71.2041 30.0925 71.3771 30.2266C71.4389 30.275 71.5135 30.2938 71.5873 30.3187C71.7307 30.3676 71.8735 30.4398 72 30.5242V31.4429Z" fill="#B76A44"/>
<path d="M61.8173 24.729C61.9199 24.9196 62.012 25.1083 62.0844 25.3125C62.2343 25.7345 62.2912 26.1176 62.7705 26.262C62.5968 26.5033 62.5287 26.7108 62.5303 27.005L62.5309 27.0703L62.4902 27.106C62.2857 27.0582 62.0978 26.9588 61.9758 26.7828C61.7294 26.4273 61.7737 25.977 61.7753 25.566C61.7764 25.2856 61.7702 25.0063 61.8173 24.729Z" fill="#B76A44"/>
<path d="M55.8188 32.3315C55.5381 31.8863 55.3628 31.4084 55.3118 30.8841C55.2701 30.4549 55.4117 29.8391 55.6985 29.5079C55.9375 29.2318 56.3054 29.0493 56.6719 29.0296C57.2241 28.9998 57.5817 29.1492 57.9919 29.5078C58.165 29.7138 58.3191 29.922 58.428 30.1697C58.5615 30.4732 58.6942 31.4372 59.0482 31.4874C59.2141 31.511 59.5238 31.3364 59.6794 31.275C59.8897 31.1921 60.0847 31.1379 60.3106 31.1169C61.4329 31.0131 62.4348 31.0009 63.4519 31.5624C63.684 31.6905 63.989 31.9565 64.2429 32.0119C64.5438 32.0778 64.8434 32.0392 65.0427 31.7887C65.1641 31.6361 65.2471 31.4108 65.3012 31.2251C65.4553 30.7303 65.6006 30.0305 66.1113 29.7816C66.5292 29.5779 67.273 29.586 67.7048 29.7536C68.1323 29.9196 68.3457 30.2508 68.5136 30.6591C68.6563 31.0063 68.7751 31.3983 68.6202 31.7637C68.4534 32.1569 68.0676 32.3466 67.9325 32.7813C67.9946 33.1147 68.1609 33.2787 68.3814 33.5213C69.4903 34.7763 69.9471 36.7304 69.8506 38.3759C69.7948 39.3287 69.5521 40.2065 69.1717 41.0782C68.7868 41.8809 68.3885 42.4991 67.6937 43.0675C67.5035 43.2231 67.3076 43.3863 67.0773 43.4786L66.5749 42.6929C66.2541 42.2018 65.7878 41.3629 65.1723 41.2135C64.8085 41.1251 64.429 41.368 64.1375 41.5645L61.3178 43.8583L60.5945 44.4564C60.3557 44.6549 60.1474 44.8603 59.838 44.9381L59.2339 44.8643C57.216 44.5299 55.2018 43.4822 53.9991 41.7918C53.0409 40.4452 52.7269 38.8231 53.0047 37.2071C53.2744 35.6382 54.1249 34.0943 55.4359 33.1646L55.924 32.7594C55.9525 32.5941 55.8846 32.4784 55.8188 32.3315Z" fill="#F5C68D"/>
<path d="M55.8188 32.3315C55.9475 32.4013 56.2627 32.4817 56.2996 32.6235C56.3314 32.7453 56.3088 32.8957 56.2359 32.9994C56.1627 33.1037 56.0444 33.1982 55.916 33.2181C55.7503 33.2438 55.5934 33.2142 55.4359 33.1647L55.924 32.7595C55.9525 32.5942 55.8846 32.4784 55.8188 32.3315Z" fill="#CA9268"/>
<path d="M67.7405 32.5861C67.8004 32.6682 67.8329 32.7516 67.9325 32.7812C67.9946 33.1146 68.1609 33.2786 68.3814 33.5212C68.2175 33.5642 68.0389 33.5896 67.8691 33.5685C67.6953 33.547 67.5413 33.4449 67.4484 33.299C67.3888 33.2054 67.3654 33.1223 67.3898 33.0117L67.7405 32.5861Z" fill="#CA9268"/>
<path d="M64.1317 35.1919C64.2488 35.1905 64.359 35.2018 64.4674 35.248C64.6024 35.3056 64.7116 35.4233 64.7596 35.5617C64.876 35.8977 64.941 36.8354 64.7705 37.1497C64.6717 37.332 64.5237 37.4159 64.3308 37.4716C64.235 37.4678 64.1298 37.4657 64.0371 37.4388C63.9031 37.3999 63.7806 37.2725 63.7169 37.1523C63.5248 36.7899 63.5818 35.9269 63.7212 35.553C63.7912 35.3653 63.9582 35.2682 64.1317 35.1919Z" fill="#2A130E"/>
<path d="M57.8388 35.0532L58.0078 35.0614C58.1655 35.0863 58.3168 35.1803 58.4041 35.3142C58.5459 35.5316 58.5972 35.9607 58.5492 36.2127L58.4303 36.8031C58.3542 37.0916 58.2245 37.2212 57.9705 37.3672C57.8624 37.3724 57.7468 37.3822 57.6419 37.3496C57.4735 37.2975 57.3467 37.1715 57.2769 37.0117C57.1528 36.7277 57.2747 36.1566 57.3214 35.8478C57.3432 35.7033 57.3586 35.5302 57.4178 35.3961C57.504 35.2011 57.65 35.1294 57.8388 35.0532Z" fill="#2A130E"/>
<path d="M54.5701 36.5713C55.0879 36.4803 55.5343 36.5246 55.9799 36.8299C56.3729 37.0992 56.7196 37.6426 56.8033 38.1116C56.8902 38.5977 56.8014 39.1217 56.4947 39.5203C56.236 39.8568 55.8477 40.1022 55.4205 40.1498C55.0263 40.1937 54.7096 40.0894 54.35 39.9439L54.2763 39.8966L54.2442 39.8802C53.8291 39.6547 53.5346 39.3053 53.4009 38.8522L53.3847 38.7959C53.2834 38.453 53.3097 38.0203 53.4531 37.6907C53.6751 37.1805 54.014 36.7876 54.5408 36.5858L54.5701 36.5713Z" fill="#DC9F72"/>
<path d="M67.0631 36.6113C67.4479 36.6283 67.789 36.7051 68.1286 36.896C68.6231 37.1738 68.9338 37.5854 69.0954 38.1269L69.1267 38.2335C69.2206 38.6275 69.1131 39.1097 68.9007 39.448C68.5741 39.9683 68.0003 40.2162 67.426 40.3498C66.9939 40.4596 66.4337 40.4016 66.0523 40.1644C65.6191 39.8951 65.4613 39.4747 65.3446 39.0058L65.2986 38.7949C65.226 38.2531 65.414 37.6847 65.7509 37.2621C66.0905 36.8363 66.5393 36.6686 67.0631 36.6113Z" fill="#DC9F72"/>
<path d="M60.5869 36.7502C60.7392 36.7247 60.912 36.7268 61.0664 36.7236C61.4079 36.7167 62.0867 36.6981 62.3248 36.9541C62.4412 37.0793 62.4812 37.2567 62.4728 37.4238C62.4631 37.6161 62.3564 37.8229 62.1776 37.9088C62.0679 37.9616 61.9273 37.9848 61.8442 38.0773C61.7295 38.205 61.7729 38.4782 61.7623 38.6405C61.7227 39.252 61.6855 39.8493 61.6972 40.4632C62.3333 40.3644 62.9683 40.2546 63.5038 39.8698C63.7326 39.7053 63.9552 39.4088 64.2304 39.3306C64.3919 39.2847 64.5559 39.2934 64.6989 39.3872C64.8294 39.4727 64.9431 39.6409 64.9633 39.7969C64.9912 40.013 64.9499 40.1685 64.827 40.3435C64.2567 41.1559 63.2164 41.5284 62.2797 41.6846C61.6862 41.748 61.0582 41.8401 60.4691 41.7177C60.0009 41.6204 59.5749 41.4139 59.1524 41.1966C58.6913 40.9594 58.2156 40.7109 57.939 40.2474C57.8542 40.1053 57.8148 39.9484 57.855 39.7859C57.8923 39.6354 57.994 39.4978 58.1318 39.4234C58.5417 39.2023 59.1063 39.7987 59.4527 39.9825C59.7401 40.1349 60.0355 40.2318 60.3468 40.3227C60.4376 40.0907 60.4356 39.7492 60.4673 39.4953L60.5831 38.5708C60.596 38.4569 60.6299 38.3079 60.6196 38.1973C60.5959 37.943 60.0909 37.9762 59.9157 37.847C59.8085 37.768 59.7182 37.6413 59.6981 37.5083C59.6711 37.3293 59.6933 37.1543 59.8065 37.0094C59.9622 36.8104 60.3483 36.7877 60.5869 36.7502Z" fill="#2A130E"/>
<path d="M0 25.4591C0.58052 25.4481 1.11823 25.4763 1.67335 25.6654C1.8822 25.7365 2.07709 25.8461 2.27286 25.9464C2.31649 25.9689 2.42382 26.0328 2.47261 26.0312C2.6066 26.0269 4.70394 24.4675 5.05374 24.2574C6.20404 23.5663 7.51514 23.1943 8.84074 23.036C9.45049 22.9632 10.0856 22.8678 10.6996 22.8963C13.246 23.0143 15.7781 24.4159 17.5915 26.1588C18.4354 26.9698 19.1624 27.8813 19.7253 28.9101C19.9439 29.3098 20.1059 29.7929 20.357 30.1634C20.4418 30.227 20.4503 30.312 20.4844 30.4107C20.5904 30.7168 20.6498 31.0307 20.7427 31.3405C20.786 31.485 20.8831 31.6635 20.9025 31.8084L20.9038 31.8652C21.0715 32.0751 21.1784 32.3151 21.3157 32.5441C21.5028 32.8562 21.7206 33.1558 21.9528 33.4359C22.6085 34.1703 23.3341 34.7709 24.2046 35.2367C24.3867 35.3341 24.5917 35.4625 24.7883 35.518C25.0942 35.5532 25.4156 35.7163 25.7117 35.8108C25.8454 35.8535 26.0509 35.8755 26.1579 35.9643L26.1906 36.0067C25.9998 36.0747 25.9639 36.1222 25.8734 36.3113C25.4087 37.2814 24.6975 38.0893 23.6574 38.4568C23.4082 38.5448 23.1668 38.6063 22.9043 38.638C21.8709 38.7628 20.5481 38.4839 19.7102 37.841L19.3127 37.4912L17.8458 38.887L20.3834 39.6046L21.4669 39.9874C21.5786 40.0321 21.8524 40.1849 21.966 40.1821C22.0354 40.1803 22.2081 40.0949 22.2717 40.0603L22.4662 39.9403C22.4699 40.0263 22.4657 40.078 22.5176 40.1505C22.8278 40.1495 23.146 40.09 23.4567 40.0679C24.1534 40.0185 24.7236 40.0821 25.3484 40.4049C25.8237 40.6177 26.1934 40.8926 26.4711 41.3438C26.5361 41.4496 26.6027 41.6246 26.6984 41.6997C26.8733 41.5787 27.0465 41.4455 27.2427 41.3611L27.2546 41.4317C27.0477 41.5663 26.8289 41.6938 26.6309 41.8408L25.807 42.4737C25.7018 42.5519 25.5698 42.6719 25.4364 42.6871C25.1321 43.0604 24.6952 43.412 24.3016 43.6931C24.206 43.7815 24.1137 43.8383 23.9991 43.8996C23.9291 44.0151 23.7931 44.0967 23.6879 44.179L23.0041 44.7122C22.8507 44.8327 22.6545 45.0321 22.4798 45.1107L21.4241 45.9819C21.6637 46.0377 21.9188 46.0789 22.145 46.177C22.3725 46.2757 22.5917 46.4244 22.8258 46.5002L23.7428 46.9223C24.1535 47.1144 24.5463 47.2853 24.9147 47.5542C25.1377 47.7251 25.454 48.0967 25.5228 48.3747C25.6073 48.7163 25.699 49.0494 25.727 49.4018L25.732 49.4693C26.176 49.406 26.5235 49.524 26.9497 49.6319C26.9338 48.8647 26.9932 48.0383 27.5524 47.4548C28.2107 46.7679 29.3587 46.7788 30.2465 46.7522C30.3722 46.776 30.5057 46.7271 30.6387 46.7217L31.6304 46.6865C31.7841 46.6864 32.028 46.7351 32.1595 46.6645L32.687 46.6541L39.4765 46.6823L41.087 46.7477C41.4169 46.7689 41.7715 46.7676 42.0964 46.8223C42.3604 46.8668 42.6168 46.9487 42.8785 47.0029C43.0647 47.0414 43.2454 47.2035 43.3976 47.3138C43.5605 47.0511 43.8292 46.802 44.0329 46.5661L45.1851 45.1834L46.0946 44.032C46.2453 43.8399 46.3877 43.5802 46.5952 43.4529C46.7706 43.6873 46.9463 43.9195 47.1462 44.1338C47.3664 44.3699 47.6464 44.581 47.811 44.8594L48.7166 46.3809C48.8318 46.5748 48.998 46.7849 49.0724 46.994L49.9922 46.853C50.1595 46.8345 50.3942 46.8522 50.546 46.807L51.139 46.7811L52.5052 46.8418C53.5315 47.0186 54.6724 47.2044 55.5687 47.7635C55.9091 47.6619 56.234 47.4988 56.5263 47.2982C56.8429 47.0808 57.0651 46.8666 57.4329 46.7277C57.5487 46.7295 57.6534 46.7286 57.7646 46.7634C57.9762 46.6644 58.1808 46.537 58.3687 46.3988C58.4247 46.2934 58.5198 46.1749 58.4961 46.0578C58.5332 45.9048 59.6419 45.106 59.838 44.9381C60.1474 44.8604 60.3557 44.655 60.5945 44.4565L61.3178 43.8584L64.1375 41.5646C64.429 41.3681 64.8085 41.1252 65.1723 41.2136C65.7878 41.363 66.2541 42.2018 66.5749 42.693L67.0773 43.4787C67.3632 43.8194 67.5526 44.2375 67.7878 44.6143L68.7736 46.1907L69.2166 46.9483C69.3049 47.099 69.4226 47.369 69.6075 47.4141C69.7402 47.4463 69.9085 47.4321 70.0447 47.4307C70.5755 47.4251 71.0747 47.3149 71.5155 47.0066C71.6899 46.8844 71.8488 46.7361 72 46.587V48.2822V52.1764V53.5329V59.149V60.543V72.0001H0V59.4759V59.37V58.0077V52.2491V50.6944V46.9139V41.3348V34.706V29.8597V27.6438V26.7242V25.4591Z" fill="#030305"/>
<path d="M57.4329 46.7277C57.5487 46.7294 57.6534 46.7285 57.7646 46.7634C57.304 47.014 56.8198 47.2914 56.3848 47.584C56.2044 47.7054 56.0441 47.858 55.8639 47.9753L55.5687 47.7634C55.909 47.6618 56.234 47.4988 56.5263 47.2981C56.8429 47.0808 57.0651 46.8666 57.4329 46.7277Z" fill="#2A130E"/>
<path d="M11.1202 27.9636C11.6437 28.073 12.2487 28.0953 12.7499 28.2621L12.8068 28.2807L11.5812 28.7286L11.1202 27.9636Z" fill="#393B45"/>
<path d="M45.7074 62.7111L45.7562 63.3895L45.7238 63.5476C45.3701 63.6026 44.9726 63.5497 44.6118 63.5564C44.569 63.4342 44.5621 63.3003 44.514 63.179C44.4528 63.0248 44.3166 62.873 44.2172 62.74C44.3779 62.7809 44.5217 62.7525 44.6849 62.7483L45.7074 62.7111Z" fill="#B76A44"/>
<path d="M4.99585 25.9321C5.22052 26.0604 5.44493 26.1767 5.68372 26.2769C5.88938 26.3633 6.09489 26.4234 6.28311 26.5479C5.27947 26.7499 4.41164 27.1074 3.4657 27.4753C3.62934 27.2636 3.83632 27.0903 4.01942 26.8958C4.34473 26.5501 4.61614 26.2227 4.99585 25.9321Z" fill="#393B45"/>
<path d="M20.3262 35.3366C20.368 35.3195 20.4551 35.2698 20.4961 35.2675C20.7424 35.2541 21.151 35.4474 21.4002 35.5206C21.2644 35.6235 21.1532 36.004 21.0761 36.1665C20.9542 36.4234 20.817 36.6792 20.6637 36.9186C20.383 36.7593 20.1653 36.5727 19.95 36.334C20.0442 36.0003 20.2317 35.7021 20.3183 35.3689L20.3262 35.3366Z" fill="#DC9F72"/>
<path d="M45.7562 63.3895C45.777 63.4736 45.7752 63.5198 45.7675 63.6039C45.7336 63.9731 45.838 64.4539 45.8773 64.8266L44.6714 64.7868C44.6996 64.5183 44.7553 64.2018 44.6964 63.9376L44.6118 63.5564C44.9726 63.5498 45.3701 63.6026 45.7238 63.5476L45.7562 63.3895Z" fill="#2A130E"/>
<path d="M20.9038 31.8651C21.0715 32.075 21.1784 32.315 21.3157 32.5441C21.5029 32.8561 21.7206 33.1557 21.9528 33.4358L21.7362 34.3654C21.4298 34.2752 20.8706 34.2018 20.6879 33.9353C20.7551 33.5329 20.7452 33.0843 20.7623 32.6763C20.7748 32.3775 20.7685 32.1397 20.9038 31.8651Z" fill="#DC9F72"/>
<path d="M0 26.7241L0.515622 26.7159C0.867902 26.7441 1.13651 26.7954 1.45846 26.9444C1.13425 27.4813 0.781305 28.0143 0.515175 28.5827C0.319613 29.0004 0.191643 29.4446 0 29.8596V27.6437V26.7241Z" fill="#DC9F72"/>
<path d="M0 26.7241L0.515622 26.7159L0 27.6437V26.7241Z" fill="#FEE4B3"/>
<path d="M26.8751 63.4683C26.8931 63.5161 26.8979 63.5379 26.8933 63.5893C26.8612 63.9504 26.9697 64.441 27.0374 64.7981L24.6776 64.7304L24.8227 63.5269L26.8302 63.545L26.8751 63.4683Z" fill="#2A130E"/>
<path d="M20.3262 35.3366C20.3262 35.1128 20.4165 34.8636 20.4775 34.6497C20.5455 34.4112 20.6033 34.1687 20.6879 33.9353C20.8706 34.2019 21.4298 34.2753 21.7362 34.3654C22.0746 34.4678 22.7083 34.5728 22.9016 34.9008C22.9796 35.0332 22.9945 35.1907 22.952 35.3373C22.9091 35.4854 22.8076 35.5982 22.6721 35.6703C22.3021 35.8672 21.7695 35.6356 21.4003 35.5206C21.1511 35.4474 20.7424 35.2541 20.4961 35.2675C20.4551 35.2698 20.3681 35.3195 20.3262 35.3366Z" fill="#994D38"/>
<path d="M23.9992 43.8995C23.9338 43.873 23.8627 43.8433 23.8094 43.7961C23.7253 43.7217 23.7248 43.5886 23.7162 43.4841C23.6961 43.2372 23.6884 42.9863 23.7236 42.7405C23.7585 42.4968 23.8345 42.264 23.858 42.0176C23.8784 41.8034 23.8526 41.5914 23.8288 41.3786C24.2021 41.3691 24.481 41.4098 24.825 41.5552C25.0973 41.691 25.3525 41.8436 25.4581 42.1481C25.5205 42.3276 25.4844 42.5094 25.4364 42.6869C25.1321 43.0603 24.6952 43.4119 24.3016 43.693C24.206 43.7814 24.1138 43.8382 23.9992 43.8995Z" fill="#F5C68D"/>
<path d="M24.825 41.5553C25.0973 41.6911 25.3525 41.8437 25.4581 42.1482C25.5205 42.3277 25.4844 42.5095 25.4364 42.687C25.1321 43.0604 24.6952 43.412 24.3016 43.6931C24.2481 43.5366 24.3899 43.2038 24.4333 43.0313C24.5559 42.5435 24.6407 42.0236 24.825 41.5553Z" fill="#FEE4B3"/>
<path d="M44.2172 62.74C44.1812 62.69 44.1093 62.6151 44.088 62.5605C44.0713 62.5176 44.1958 60.4143 44.1988 60.1617C44.7595 60.3485 45.2938 60.4499 45.8827 60.4971C45.8082 60.7621 45.7298 61.0333 45.6986 61.3073C45.6465 61.7633 45.6928 62.2527 45.7073 62.7111L44.6849 62.7483C44.5217 62.7526 44.3779 62.781 44.2172 62.74Z" fill="#CA9268"/>
<path d="M15.5709 28.4678C15.7273 28.4204 15.9183 28.4546 16.082 28.4531C16.4642 28.4495 16.8534 28.4232 17.2347 28.4466C17.4853 28.4619 17.7806 28.5322 18.0253 28.473C19.1139 29.9027 19.7557 31.8339 19.5223 33.6356L19.4512 34.007C19.3675 33.6342 19.3154 33.2562 19.2071 32.8893C18.7005 31.173 17.688 29.7894 16.1719 28.8292L15.5709 28.4678Z" fill="#393B45"/>
<path d="M21.9527 33.4358C22.6085 34.1702 23.3341 34.7708 24.2046 35.2366C24.3867 35.334 24.5917 35.4624 24.7883 35.5179C24.5911 36.194 24.1814 36.7263 23.5566 37.0647C23.288 37.2102 23.0302 37.2962 22.7285 37.3405L22.6648 37.3511C22.0235 37.4487 21.2247 37.2322 20.6637 36.9185C20.817 36.6791 20.9542 36.4234 21.0761 36.1664C21.1532 36.004 21.2644 35.6234 21.4002 35.5206C21.7694 35.6355 22.302 35.8671 22.6721 35.6703C22.8076 35.5981 22.9091 35.4853 22.9519 35.3373C22.9945 35.1906 22.9796 35.0331 22.9015 34.9008C22.7082 34.5727 22.0746 34.4677 21.7362 34.3653L21.9527 33.4358Z" fill="#FEE4B3"/>
<path d="M17.3047 47.8723C17.2992 46.9415 17.2042 45.9131 17.4122 45.0039C17.5448 44.8784 17.6493 44.8462 17.8349 44.836C18.3866 44.8057 18.9752 44.9878 19.5307 45.0302L22.4797 45.1107L21.424 45.9818C21.0948 45.8705 20.9386 45.9484 20.6159 46.0216C20.4371 46.0622 20.2492 46.0917 20.083 46.1723C19.7305 46.3434 19.3883 46.5768 19.0495 46.775C18.4565 47.1222 17.8443 47.444 17.3047 47.8723Z" fill="#887663"/>
<path d="M24.9299 62.0323C24.939 61.4921 24.9931 60.9381 24.9634 60.3984C24.9532 60.2144 24.8528 60.0342 24.8619 59.8535C24.874 59.6135 24.9807 59.3386 25.0352 59.1001C25.1582 59.2784 25.2656 59.4413 25.4414 59.5722C25.5676 59.6663 25.7006 59.7835 25.8452 59.8474C26.1827 59.9967 26.6581 60.0716 27.0231 60.1211L27.1245 60.7029L27.1078 60.7277C26.8772 61.0829 26.7872 61.7678 26.7938 62.1898L26.8751 63.4682L26.8303 63.5449L24.8227 63.5268L24.9299 62.0323Z" fill="url(#paint4_linear_4_40)"/>
<path d="M24.9299 62.0322L24.9491 62.0931C24.9854 62.2183 24.9772 62.361 24.9785 62.4905L25.1367 62.4902L25.1455 62.3455C25.1657 62.4559 25.1562 62.5121 25.2422 62.5876L26.1859 62.6422C26.3708 62.6544 26.6063 62.6987 26.7865 62.6669C26.7836 62.5091 26.7719 62.3462 26.7938 62.1897L26.8751 63.4681L26.8303 63.5449L24.8227 63.5268L24.9299 62.0322Z" fill="#B76A44"/>
<path d="M21.8437 41.5356C22.0983 41.6407 22.5311 41.7656 22.7285 41.9498C22.6261 42.2547 22.5098 42.5609 22.4744 42.8825C22.457 43.0408 22.5057 43.7314 22.4383 43.8118L20.7441 43.7842L19.1267 43.7275L18.0918 43.6025C17.8866 43.5725 17.6775 43.5207 17.4693 43.535C17.1746 43.5552 16.8117 43.6818 16.5994 43.8925C16.4523 44.0386 16.2757 44.361 16.2208 44.5634C16.1445 44.8446 16.1633 45.188 16.1559 45.4789L16.1016 47.2712C15.9156 47.191 15.7275 47.1475 15.5309 47.1021L15.2824 43.4003C15.2782 43.1702 15.3295 42.978 15.4983 42.8147C15.6604 42.658 15.8767 42.5808 16.1015 42.6078C16.2772 42.629 16.4589 42.7079 16.6289 42.7599C17.0681 42.8944 17.5271 43.0647 17.9734 43.1634C18.3719 43.2515 18.7975 43.2418 19.2041 43.2509L21.1971 43.2704L21.8437 41.5356Z" fill="#393B45"/>
<path d="M43.3976 47.3137C43.5605 47.0511 43.8292 46.8019 44.0329 46.566L45.1851 45.1833L46.0946 44.032C46.2453 43.8399 46.3877 43.5801 46.5952 43.4529C46.7706 43.6872 46.9463 43.9195 47.1462 44.1338C47.3664 44.3699 47.6463 44.581 47.811 44.8594L48.7166 46.3809C48.8318 46.5748 48.998 46.7849 49.0724 46.994C48.3179 47.1716 47.5096 47.3095 46.7947 47.6114C45.8562 48.0076 45.0904 48.8155 44.5689 49.6706C44.3776 49.9844 44.2432 50.3162 44.1434 50.6688C44.1347 49.6203 44.3774 48.2265 43.5288 47.4191L43.3976 47.3137Z" fill="#DC9F72"/>
<path d="M4.99585 25.9321C5.60963 25.4856 6.28484 25.182 6.97776 24.8805C7.35545 24.7161 7.73049 24.5283 8.11791 24.3886C8.62705 24.2051 9.1262 24.1021 9.66134 24.0319C11.8114 23.7496 14.2004 24.9109 15.8459 26.2017C16.6692 26.8475 17.4272 27.6127 18.0252 28.473C17.7806 28.5322 17.4853 28.4619 17.2347 28.4466C16.8533 28.4232 16.4641 28.4495 16.082 28.453C15.9183 28.4546 15.7273 28.4203 15.5708 28.4678C15.3273 28.3777 15.089 28.2655 14.8359 28.2043C14.1616 28.0413 13.4724 28.1185 12.8068 28.2806L12.7499 28.262C12.2487 28.0952 11.6437 28.0729 11.1202 27.9635C10.9576 27.7776 10.7832 27.584 10.5895 27.4304C9.3583 26.4533 7.78013 26.3799 6.28311 26.5479C6.09489 26.4234 5.88938 26.3633 5.68372 26.2769C5.44494 26.1767 5.22053 26.0604 4.99585 25.9321Z" fill="#46454A"/>
<path d="M48.383 55.5634L57.3124 55.6556C57.366 55.7361 57.152 58.1099 57.1309 58.3905L54.946 58.4908L53.2386 58.5054C53.018 58.5064 52.6771 58.4612 52.4707 58.5321L52.4304 58.714L52.1412 60.6564L48.6073 60.6542L48.6075 58.5132L45.2697 58.3891L45.2668 55.6553L48.383 55.5634Z" fill="#FEFEFE"/>
<path d="M47.7597 61.2466L52.1403 61.2473L52.3279 63.2809L61.9578 63.47L61.7512 66.1505L48.1396 66.1734C47.9953 65.4433 47.9174 64.6943 47.8512 63.9537C47.7712 63.06 47.7157 62.1438 47.7597 61.2466Z" fill="#FEFEFE"/>
<path d="M14.007 60.1365L22.9025 60.323C22.8901 62.3934 22.7522 64.4975 22.3101 66.5247L18.7295 66.5223L18.1987 66.5232L17.9933 63.0798L10.3376 62.8228L9.95148 60.343C10.1883 60.2526 10.5571 60.2732 10.8155 60.2559L14.007 60.1365Z" fill="#FEFEFE"/>
<path d="M50.8024 48.8467L50.8711 48.8399C52.0815 48.7591 53.964 48.9338 54.8872 49.8006C55.4821 50.3591 55.776 51.2109 55.7971 52.0154C55.8166 52.7586 55.6785 53.5716 55.1305 54.12C54.8277 54.4229 54.4118 54.5659 54.0089 54.6817C53.0107 54.9686 51.9169 55.0735 50.8799 55.0956C49.8525 55.1168 48.8296 55.0911 47.8235 54.8641C47.412 54.7712 46.9234 54.6246 46.596 54.3443C46.1432 53.9565 45.9492 53.2917 45.904 52.7158C45.8353 51.8414 46.0954 50.8995 46.6737 50.229C47.6479 49.0996 49.4077 48.9493 50.8024 48.8467Z" fill="#FEFEFE"/>
<path d="M50.8225 50.9915C51.1592 50.9635 51.7561 50.9748 52.0287 51.1952C52.2284 51.3568 52.3445 51.6761 52.3691 51.9258C52.394 52.178 52.3316 52.4504 52.1656 52.6463C51.8896 52.9719 51.2023 52.976 50.8095 53.0023C50.4028 53.0154 49.7913 53.0418 49.4599 52.7744C49.3046 52.6491 49.2349 52.4734 49.2131 52.2793C49.1802 51.9879 49.2663 51.6421 49.4578 51.4164C49.7571 51.0636 50.3951 51.0269 50.8225 50.9915Z" fill="#030305"/>
<path d="M21.0545 47.9812C21.3012 47.9832 23.2868 48.9858 23.6573 49.1587L23.6947 51.74L26.1322 51.4949L25.9182 55.4775L23.4747 55.4764L23.0624 58.6838L22.8496 59.6125L18.9647 59.6122C19.1248 57.4832 19.101 55.3409 19.0209 53.209C18.9726 51.9257 18.8974 50.6371 18.6865 49.3689L21.0545 47.9812Z" fill="#FEFEFE"/>
<path d="M59.7687 47.9809C59.9439 47.9717 60.285 48.1843 60.4507 48.2621L62.355 49.154C62.3983 49.3912 62.3899 49.648 62.4026 49.8894L62.4443 51.6421L62.253 57.6574C62.1306 59.2479 61.9563 60.8538 61.5544 62.4006L57.685 62.3988L57.7074 61.6027L56.6101 61.6888L53.6813 61.9238L53.6814 59.0314L57.7609 59.0307L57.404 49.3627L59.7687 47.9809Z" fill="#FEFEFE"/>
<path d="M33.1348 48.7072L42.0987 48.8746L41.7197 54.5222L37.9392 54.6779L29.3837 54.5202L29.003 48.8732L33.1348 48.7072Z" fill="#FEFEFE"/>
<path d="M33.2222 50.73L37.8806 50.8774L37.9717 52.6626L33.2615 52.4855L33.2222 50.73Z" fill="#030305"/>
<path d="M12.5754 48.8113C13.7546 48.7333 15.0568 48.855 16.0549 49.5483C16.7809 50.0526 17.1376 50.8727 17.284 51.7241C17.4476 52.6753 17.3816 53.891 16.8028 54.6987C16.2801 55.4283 15.1209 55.6318 14.2924 55.7718L14.3483 56.5251L18.6005 56.6512L18.4071 59.2754C18.0351 59.3285 17.6448 59.3202 17.2693 59.337L13.6451 59.3832L7.30078 59.2791L7.29846 56.6496L10.7611 56.5498L10.7663 56.5044C10.7752 56.4238 10.8264 55.9136 10.801 55.8692C10.795 55.8585 9.01324 55.6667 8.44702 54.9066C7.98035 54.2804 7.87432 53.2003 7.96495 52.4526C8.06058 51.6643 8.30091 50.8683 8.81925 50.2487C9.67966 49.2203 11.3079 48.9282 12.5754 48.8113Z" fill="#FEFEFE"/>
<path d="M12.5736 51.2713C12.9291 51.2409 13.4032 51.287 13.6997 51.4927C13.917 51.6435 14.039 51.934 14.0825 52.1875C14.1375 52.5077 14.0825 52.8679 13.882 53.1292C13.6338 53.4525 13.1081 53.4681 12.7354 53.5075C12.3436 53.5293 11.7065 53.556 11.3859 53.3061C11.2037 53.164 11.1254 52.9367 11.0969 52.7145C11.0607 52.4315 11.1417 52.0477 11.3187 51.8203C11.6306 51.4197 12.0994 51.3292 12.5736 51.2713Z" fill="#030305"/>
<path d="M0 34.7059C0.289453 35.4377 0.622733 36.1144 1.07228 36.7624C2.11383 38.264 3.63371 39.3426 5.29585 40.0624C8.38259 41.3991 12.1216 41.5601 15.2611 40.3066L16.6582 39.6415C16.8837 39.8086 17.0959 39.9865 17.3562 40.0982C17.9378 40.3478 18.6391 40.4493 19.2512 40.623C20.1312 40.8728 20.9989 41.1858 21.8437 41.5357L21.1971 43.2704L19.2042 43.2509C18.7976 43.2418 18.372 43.2515 17.9734 43.1634C17.5271 43.0647 17.0681 42.8944 16.6289 42.7599C16.459 42.7079 16.2772 42.629 16.1016 42.6079C15.8768 42.5809 15.6604 42.658 15.4984 42.8147C15.3295 42.978 15.2783 43.1702 15.2824 43.4004L15.531 47.1022C14.7596 46.8776 13.9844 46.7378 13.1811 46.723L12.1129 44.913L11.0137 43.1986C10.7248 42.7483 10.4513 42.2465 10.1129 41.8336C9.9322 41.6131 9.71803 41.3924 9.45703 41.2706L9.41639 41.251C9.24462 41.172 9.04317 41.1529 8.86458 41.2207C8.61209 41.3166 8.31642 41.5 8.09543 41.6601C7.07906 42.3959 6.11611 43.2545 5.13876 44.0441L3.58585 45.3048C3.2994 45.5381 2.98813 45.7614 2.72461 46.0203C2.60331 46.1395 2.48711 46.2814 2.42256 46.4402C2.31511 46.7047 2.3527 47.0345 2.35275 47.3166C2.35293 48.483 2.47738 49.621 2.60068 50.7795L0 50.6943V46.9138V41.3347V34.7059Z" fill="#46454A"/>
<path d="M0 41.3347C0.304215 41.7713 0.638023 42.1854 1.02064 42.5564C1.01499 43.0377 0.983609 43.5452 0.871587 44.0156C0.793723 44.3426 0.670837 44.6666 0.580078 44.9916L0 46.9138V41.3347Z" fill="#030305"/>
<path d="M0 50.6944L2.60068 50.7796C2.47738 49.621 2.35293 48.4831 2.35275 47.3166C2.3527 47.0346 2.31511 46.7048 2.42256 46.4403C2.48711 46.2815 2.60331 46.1396 2.72461 46.0204C2.98813 45.7615 3.2994 45.5381 3.58585 45.3048L5.13876 44.0441C6.11611 43.2546 7.07906 42.3959 8.09543 41.6601C8.31642 41.5001 8.61209 41.3166 8.86458 41.2207C9.04317 41.153 9.24462 41.1721 9.41639 41.2511L9.45703 41.2707C9.71803 41.3925 9.9322 41.6132 10.1129 41.8336C10.4513 42.2465 10.7248 42.7483 11.0137 43.1986L12.1129 44.9131L13.1811 46.7231L11.774 46.8367C10.2715 47.1673 8.7049 47.4345 7.56998 48.569C7.25266 48.8862 6.97452 49.2954 6.73338 49.6734C6.41984 50.1649 6.2769 50.6977 6.14187 51.258C5.92075 52.1756 5.77212 53.0095 5.98751 53.9484L6.23045 54.9441C5.78848 55.2209 5.502 55.5783 5.38384 56.0894C5.33886 56.284 5.26695 56.4773 5.24753 56.6764C5.20793 57.0825 5.23567 57.5132 5.2386 57.9216C5.24171 58.3536 5.21206 58.8018 5.24578 59.2316C5.25932 59.4042 5.31821 59.5911 5.3579 59.7609C5.39667 59.9267 5.42358 60.107 5.51456 60.2526C5.6978 60.5458 5.88094 60.7525 6.16095 60.9564C6.60465 61.2524 7.24809 61.3291 7.77206 61.3781L8.0332 61.389C8.11399 61.554 8.11828 61.7624 8.14402 61.9427C8.19928 62.3307 8.2402 62.747 8.35692 63.1205C8.3873 63.2582 8.41029 63.4045 8.45831 63.537C8.559 63.9976 8.97188 64.3666 9.35248 64.611C9.45809 64.6789 9.58781 64.7125 9.70861 64.742C9.80529 64.7657 9.74271 64.7451 9.8209 64.7871C9.9218 64.8413 10.0352 64.8322 10.1448 64.8564L4.67569 64.6416C4.44656 64.3754 4.32789 64.1101 4.23152 63.7764C4.08499 63.269 4.05395 62.6845 3.98851 62.1599L3.72971 60.1475C3.7104 59.975 3.71808 59.6044 3.61776 59.4668C3.4169 59.3702 3.08696 59.4146 2.86226 59.4174L0 59.37V58.0077V52.249V50.6944Z" fill="#2A130E"/>
<path d="M2.24227 52.2837C2.40157 52.2892 2.59337 52.2694 2.72923 52.3606C2.83011 52.5214 2.83088 52.718 2.85249 52.903L2.95939 53.7952L3.47937 58.0076L2.15387 58.0078L2.24227 52.2837Z" fill="#B76A44"/>
<path d="M0 52.249L2.24227 52.2837L2.15388 58.0078L0 58.0077V52.249Z" fill="#DC9F72"/>
<path d="M5.30465 62.0025C5.22425 61.7401 5.2252 61.4099 5.18721 61.137L4.84035 58.3945L4.26968 54.0395L3.91347 51.559C3.73591 50.0242 3.6444 48.4774 3.64589 46.9325C3.84152 46.7243 4.08258 46.5601 4.30737 46.3849L5.34416 45.5624L7.98024 43.2953L8.66585 42.6574C8.72871 42.5995 8.85485 42.4628 8.92967 42.4341C8.96855 42.4192 9.01172 42.4196 9.05271 42.4124C9.19692 42.5187 9.27054 42.6734 9.36054 42.8245L9.78213 43.5243L11.774 46.8366C10.2714 47.1672 8.70488 47.4344 7.56996 48.569C7.25264 48.8862 6.97449 49.2954 6.73336 49.6734C6.41982 50.1649 6.27687 50.6977 6.14185 51.2579C5.92073 52.1755 5.7721 53.0095 5.98749 53.9484L6.23043 54.9441C5.78845 55.2208 5.50197 55.5782 5.38382 56.0893C5.33883 56.284 5.26693 56.4772 5.24751 56.6764C5.20791 57.0824 5.23564 57.5132 5.23858 57.9216C5.24169 58.3536 5.21204 58.8018 5.24576 59.2316C5.2593 59.4041 5.31818 59.591 5.35787 59.7608C5.39665 59.9266 5.42355 60.1069 5.51454 60.2525C5.69778 60.5457 5.88092 60.7525 6.16093 60.9564C6.60463 61.2524 7.24807 61.3291 7.77204 61.3781L8.03318 61.389C8.11397 61.5539 8.11826 61.7624 8.14399 61.9427C8.19926 62.3306 8.24018 62.7469 8.3569 63.1204C8.38727 63.2582 8.41027 63.4044 8.45829 63.537C8.25256 63.5943 7.99338 63.558 7.77759 63.5534L6.47643 63.5339C6.19796 63.5339 5.85807 63.5716 5.58982 63.5014C5.563 63.4766 5.52902 63.4577 5.50934 63.4269C5.45898 63.3481 5.45072 63.1653 5.43743 63.0729L5.30465 62.0025Z" fill="#DC9F72"/>
<path d="M6.16097 60.9564C6.60467 61.2524 7.24811 61.3291 7.77208 61.3782L8.03322 61.3891C8.11401 61.554 8.1183 61.7624 8.14403 61.9428C8.1993 62.3307 8.24022 62.747 8.35694 63.1205C8.38731 63.2582 8.41031 63.4045 8.45833 63.537C8.2526 63.5944 7.99342 63.5581 7.77763 63.5535L6.47647 63.534C6.198 63.5339 5.85811 63.5716 5.58986 63.5015C5.56304 63.4766 5.52906 63.4578 5.50938 63.427C5.45902 63.3482 5.45075 63.1654 5.43747 63.073L5.30469 62.0026L5.37701 62.1043C5.38605 62.2309 5.42229 62.3416 5.41601 62.4691L5.41409 62.5606C5.45866 62.7073 5.43563 62.5419 5.45241 62.6719L5.47852 62.897C5.48773 62.9997 5.51853 63.0982 5.52569 63.1979C5.53251 63.2928 5.54002 63.3385 5.5915 63.4239C5.64965 63.4484 5.69407 63.4643 5.75772 63.4707L5.90627 63.4837C6.07083 63.5062 6.28901 63.5105 6.45119 63.475L6.45154 63.2989C6.39161 63.239 6.41638 63.1363 6.41638 63.0528C6.36312 62.9729 6.38123 62.9007 6.38123 62.8067C6.32796 62.7268 6.34607 62.6546 6.34607 62.5606C6.29608 62.4856 6.31092 62.4371 6.31092 62.3497C6.26092 62.2747 6.27576 62.2262 6.27576 62.1387C6.21419 62.0464 6.26507 62.0052 6.2406 61.9102C6.17279 61.6468 6.15642 61.2785 6.16008 61.0007L6.16097 60.9564Z" fill="#D2743F"/>
<path d="M8.35691 63.1205C8.38729 63.2582 8.41028 63.4045 8.4583 63.537C8.25257 63.5944 7.9934 63.558 7.77761 63.5535L6.47644 63.534L6.48667 63.2989L6.52291 63.2949L6.53905 63.4571C6.61224 63.5123 6.7363 63.4934 6.82577 63.4937L7.7871 63.475C7.76896 63.3875 7.77255 63.2996 7.75194 63.211C7.55155 63.2112 7.24541 63.1722 7.05761 63.2198C6.96494 63.2432 6.91539 63.2408 6.82055 63.234L6.85546 63.1937C6.93582 63.1246 7.34694 63.1586 7.47069 63.1586L7.50585 63.1234C7.60366 63.1201 7.69506 63.1329 7.79146 63.1464C7.95901 63.1842 8.18472 63.1357 8.35691 63.1205Z" fill="#B76A44"/>
<path d="M7.77204 61.3781L8.03318 61.389C8.11397 61.5539 8.11826 61.7623 8.144 61.9427C8.19926 62.3306 8.24018 62.7469 8.3569 63.1204C8.18471 63.1356 7.959 63.1841 7.79145 63.1463C7.75503 62.6874 7.64696 62.2011 7.55879 61.7484C7.54036 61.654 7.48953 61.5848 7.47617 61.4894L7.47104 61.4355L7.41809 61.389C7.53481 61.3956 7.65511 61.3838 7.77204 61.3781Z" fill="#CA9268"/>
<path d="M33.6335 55.1771L44.3478 55.3356L44.3501 58.0286L37.6254 58.1926L37.5694 58.8056L42.0848 58.9866C42.1381 59.0593 42.1212 59.3652 42.125 59.4659C42.1741 60.7474 42.0841 62.0306 41.9332 63.3026L33.528 63.5299L33.5574 63.9442L42.6696 64.0441L42.4891 66.1714L37.946 66.3545L33.9318 66.356L30.1029 66.2287C29.9466 66.2168 29.4977 66.2297 29.3834 66.15C29.0363 64.693 28.8667 63.2717 28.8586 61.7742L37.5426 61.5845L37.5012 61.1973L29.2785 61.1014L28.8467 58.9984C29.4116 58.9007 30.0596 58.9111 30.6346 58.8924L33.5466 58.8161L33.4945 58.194L26.7512 58.027L26.7519 55.3357L33.6335 55.1771Z" fill="#FEFEFE"/>
<path d="M61.3178 43.8583L64.1375 41.5645C64.4289 41.368 64.8085 41.1251 65.1723 41.2135C65.7878 41.3629 66.2541 42.2018 66.5749 42.6929L67.0773 43.4786C67.3632 43.8194 67.5526 44.2375 67.7878 44.6142L68.7736 46.1907L69.2166 46.9483C69.3048 47.099 69.4225 47.369 69.6075 47.414C69.7401 47.4462 69.9085 47.432 70.0447 47.4306C70.5755 47.4251 71.0747 47.3148 71.5155 47.0065C71.6899 46.8844 71.8488 46.736 72 46.587V48.2821V52.1764V53.5328V59.1489V60.5429L69.4734 60.4941C69.1299 60.49 68.773 60.4536 68.4316 60.4704C68.3809 60.4728 68.3124 60.4841 68.2771 60.523C68.1649 60.6463 68.1495 60.9346 68.1214 61.0987L67.8945 62.6148L67.6851 63.8527C67.6609 64.0332 67.7257 64.2877 67.6173 64.4425C67.4322 64.7071 67.1365 64.7796 66.8329 64.8209L66.6687 64.8437C66.3533 64.8899 66.0139 64.865 65.6956 64.8613L63.9111 64.8245L64.0231 63.5616C63.9484 63.2015 63.8879 62.7076 63.6808 62.4059L63.6569 62.3722C63.6415 62.1491 63.7544 61.7471 63.8328 61.5358L64.1777 59.1536C64.4317 56.7887 64.5153 54.4041 64.5111 52.0269L64.4744 50.1623C64.4477 49.5242 64.4107 48.9243 64.2172 48.3104C64.1802 48.1928 64.0819 48.0762 64.01 47.9775C63.5802 47.387 62.9292 47.1461 62.2894 46.8482C61.7459 46.5944 61.1577 46.2558 60.5841 46.0869C60.3227 46.0256 59.9384 45.8728 59.6777 45.9387C59.4169 46.0048 59.1159 46.0345 58.8688 46.1346C58.6938 46.2056 58.5477 46.3364 58.3687 46.3987C58.4247 46.2933 58.5198 46.1748 58.496 46.0578C58.5332 45.9047 59.6419 45.106 59.838 44.9381C60.1473 44.8603 60.3557 44.6549 60.5945 44.4564L61.3178 43.8583Z" fill="#2A130E"/>
<path d="M69.6643 59.1258L68.436 59.0908L69.0272 55.2225L69.1811 54.1506C69.2097 53.9548 69.2183 53.7316 69.3021 53.5514C69.4281 53.466 69.5011 53.4787 69.6509 53.4702C69.2594 55.286 69.4598 57.1996 69.3237 59.0449C69.3963 59.1259 69.5553 59.0977 69.6643 59.1258Z" fill="#B76A44"/>
<path d="M60.5841 46.0869L63.3226 43.7979C63.8029 43.3708 64.2621 42.8912 64.7585 42.4864C64.8237 42.4332 64.8679 42.4177 64.9511 42.4156C65.1297 42.5469 65.2465 42.803 65.3594 42.9931C65.0916 43.2678 64.8888 43.597 64.6578 43.9019L63.5751 45.2954L62.7833 46.2582C62.6197 46.4492 62.4279 46.6389 62.2894 46.8482C61.7459 46.5944 61.1577 46.2558 60.5841 46.0869Z" fill="#CA9268"/>
<path d="M72 52.1764L69.4988 52.1767C69.4959 51.8886 69.5485 51.5946 69.5823 51.3088L69.7632 49.8226C69.7986 49.5387 69.7954 49.1674 69.882 48.8997C69.8951 48.8593 69.9363 48.796 69.9751 48.7765C70.0159 48.756 70.1523 48.7642 70.207 48.76C70.4102 48.7446 70.6148 48.732 70.8145 48.691C71.2406 48.6038 71.6055 48.4649 72 48.2821V52.1764Z" fill="#49EDFD"/>
<path d="M63.8328 61.5358L63.858 61.5595C63.8766 61.8024 63.6908 62.0907 63.7194 62.3005C63.7313 62.3874 63.8059 62.4578 63.859 62.5235L64.8809 62.5257C64.9774 62.5894 65.4171 62.5824 65.5488 62.5609L65.5666 62.4729C65.5845 62.4144 65.5959 62.4132 65.5903 62.3452L65.5843 62.2969C65.6319 62.2253 65.6193 62.2043 65.6195 62.1211C65.6691 62.0465 65.6544 61.9971 65.6547 61.9102L65.6895 61.8578L65.7021 61.7695C65.7964 61.5047 65.8418 61.2216 65.8984 60.9418L66.2012 59.3207L67.6544 50.4668L67.8864 49.1011L67.949 48.5983L68.0269 48.1871L68.034 48.0586C68.047 47.9761 68.0646 47.7603 68.1152 47.707L68.1409 47.7659L68.2271 47.7977C68.484 48.093 68.6534 48.4485 68.6233 48.8445C68.5845 49.3551 68.476 49.8781 68.4051 50.3862L68.2209 52.0948L67.8947 53.8898L67.2998 57.8145L67.0548 59.4995L66.5928 61.9346C66.4922 62.4388 66.3338 62.9741 66.3223 63.4887C66.2676 63.5611 66.2397 63.5827 66.1465 63.5913L64.0231 63.5616C63.9484 63.2015 63.8879 62.7076 63.6808 62.4059L63.6569 62.3722C63.6415 62.1491 63.7544 61.7471 63.8328 61.5358Z" fill="#D2743F"/>
<path d="M69.6508 53.4702L72 53.5329V59.1489L69.6642 59.1258C69.5553 59.0977 69.3962 59.1259 69.3236 59.0449C69.4597 57.1996 69.2593 55.286 69.6508 53.4702Z" fill="#DC9F72"/>
<path d="M65.3594 42.993L68.2271 47.7977L68.1409 47.7659L68.1152 47.707C68.0646 47.7603 68.047 47.9761 68.034 48.0586L68.0269 48.187L67.949 48.5983L67.8864 49.1011L67.6544 50.4668L66.2012 59.3207L65.8984 60.9418C65.8418 61.2216 65.7964 61.5046 65.702 61.7695L65.6895 61.8577L65.6547 61.9101C65.6544 61.9971 65.6691 62.0465 65.6195 62.1211C65.6193 62.2043 65.6319 62.2253 65.5843 62.2968L65.5903 62.3452C65.5959 62.4132 65.5845 62.4144 65.5666 62.4728L65.5488 62.5609C65.4171 62.5824 64.9774 62.5894 64.8809 62.5257L63.859 62.5235C63.8059 62.4578 63.7313 62.3873 63.7194 62.3004C63.6908 62.0906 63.8766 61.8024 63.858 61.5595L63.8328 61.5358L64.1777 59.1535C64.4317 56.7886 64.5153 54.4041 64.5112 52.0269L64.4744 50.1622C64.4477 49.5242 64.4108 48.9243 64.2173 48.3104C64.1802 48.1928 64.0819 48.0762 64.01 47.9774C63.5802 47.387 62.9292 47.1461 62.2894 46.8482C62.4279 46.6389 62.6197 46.4492 62.7833 46.2582L63.5751 45.2954L64.6578 43.9019C64.8888 43.597 65.0916 43.2678 65.3594 42.993Z" fill="#DC9F72"/>
<path d="M5.40908 38.6988C5.1325 38.6019 4.8567 38.4274 4.60584 38.2774C3.67746 37.722 2.88854 37.0204 2.23352 36.1596C1.9494 35.7863 1.69373 35.4009 1.51282 34.9664C1.1823 34.1727 1.19162 33.2957 1.30864 32.458C1.40321 31.7811 1.51694 30.8928 1.90918 30.3156C2.1891 29.9037 2.70387 29.5119 3.10007 29.2149C4.15907 28.4214 5.34788 27.9472 6.65804 27.7902C7.06343 27.7416 7.5199 27.7093 7.92561 27.7683C8.62957 27.8045 9.5345 28.0772 10.0236 28.6148C10.165 28.7702 10.285 28.9511 10.3674 29.1446C10.5262 29.5171 10.603 30.1899 11.1042 30.2415C11.4348 30.2755 11.8208 29.9524 12.1113 29.8125C12.8122 29.4746 13.8442 29.2775 14.6055 29.4879C15.3773 29.7011 16.2507 30.415 16.768 31.0026C17.7414 32.1084 18.2202 33.6354 18.1178 35.1018C18.0602 35.9252 17.821 36.7048 17.3903 37.412C17.2754 37.6007 17.1744 37.7912 17.0051 37.9385C16.8132 38.1057 16.5686 38.2319 16.3542 38.3691C14.3998 39.6195 11.9127 40.0571 9.62175 39.8614C8.36717 39.7543 7.10421 39.4575 5.94687 38.9587C5.78721 38.8899 5.54409 38.808 5.40908 38.6988Z" fill="#FEE4B3"/>
<path d="M6.19692 30.8732C6.32145 30.8697 6.45763 30.8773 6.57579 30.9195C6.76901 30.9886 6.93387 31.1282 7.01452 31.3197C7.09233 31.5045 7.09725 31.835 7.0205 32.0217L7.00231 32.0625C6.87118 32.3663 6.67337 32.5492 6.36839 32.6754C6.22486 32.6925 6.06308 32.6856 5.92701 32.633C5.76168 32.5691 5.6298 32.4282 5.56184 32.2668C5.44876 31.9982 5.45617 31.6584 5.58225 31.3953C5.71326 31.1219 5.91581 30.9672 6.19692 30.8732Z" fill="#2A130E"/>
<path d="M13.3923 32.5271C13.5547 32.5417 13.7225 32.5614 13.864 32.6494C14.0609 32.7716 14.2141 32.9721 14.2559 33.2022C14.2994 33.4419 14.2555 33.7269 14.1085 33.926C13.9326 34.1642 13.7211 34.2616 13.436 34.3021C13.2638 34.2907 13.1001 34.271 12.9484 34.1816C12.7567 34.0688 12.6012 33.864 12.5523 33.6474C12.4959 33.3983 12.5295 33.1617 12.6714 32.9485C12.8536 32.6746 13.0863 32.5878 13.3923 32.5271Z" fill="#2A130E"/>
<path d="M8.12766 32.5205C8.47114 32.491 8.83149 32.6559 9.17243 32.72L10.6126 32.9575C10.8204 32.9953 11.097 33.0309 11.2762 33.1422C11.4041 33.2215 11.5415 33.3675 11.5654 33.5215C11.6115 33.8195 11.4829 34.096 11.3561 34.3569C11.1059 34.8712 10.7996 35.3472 10.4618 35.8077C10.2636 36.0689 10.0257 36.4088 9.74316 36.5845C9.55838 36.6995 9.36059 36.7458 9.14586 36.6909C8.903 36.6288 8.70753 36.39 8.58884 36.1828C8.38859 35.8329 8.28425 35.4058 8.19868 35.0154L7.92551 33.4866C7.89978 33.3156 7.81133 33.0344 7.8604 32.8704L7.87243 32.836C7.9234 32.6851 8.0049 32.6181 8.12766 32.5205Z" fill="#2A130E"/>
<path d="M8.83606 33.5515L10.5953 33.8687L9.90882 35.0271L9.35693 35.7337C9.09256 35.0144 8.97922 34.3 8.83606 33.5515Z" fill="#BB3343"/>
<path d="M14.9256 34.2557C15.2275 34.2271 15.5649 34.2518 15.8589 34.3273L15.9258 34.3447L15.9926 34.3612C16.4381 34.4743 16.8308 34.6898 17.0634 35.1025C17.2627 35.4562 17.2856 35.9386 17.1796 36.3283L17.163 36.3867C17.0973 36.625 17.015 36.845 16.8819 37.0547C16.5269 37.6142 16.0549 37.8615 15.4256 38.0076C15.202 38.05 14.9332 38.0571 14.7094 38.0179L14.6601 38.0086C14.3686 37.9568 14.0583 37.8524 13.8134 37.6795C13.422 37.4032 13.1323 36.9314 13.0657 36.4578C12.9945 35.9514 13.2262 35.351 13.5427 34.9629C13.9096 34.5131 14.3608 34.319 14.9256 34.2557Z" fill="#F5C68D"/>
<path d="M5.40908 38.6988C5.1325 38.6019 4.8567 38.4274 4.60584 38.2774C3.67746 37.722 2.88854 37.0204 2.23352 36.1596C1.9494 35.7863 1.69373 35.4009 1.51282 34.9664C1.1823 34.1727 1.19162 33.2957 1.30864 32.458C1.40321 31.7811 1.51694 30.8928 1.90918 30.3156C2.1891 29.9037 2.70387 29.5119 3.10007 29.2149C4.15907 28.4214 5.34788 27.9472 6.65804 27.7902C7.06343 27.7416 7.5199 27.7093 7.92561 27.7683C7.78807 27.7744 7.48756 27.7557 7.39193 27.8398C7.1971 28.011 6.8286 28.1197 6.58522 28.2162L5.29535 28.7372C5.03982 28.8405 4.71252 28.944 4.49284 29.1078C4.37975 29.1921 4.27871 29.3211 4.18319 29.4259C3.88661 29.7511 3.63157 30.0968 3.40235 30.4728C3.11042 30.9515 2.79482 31.5705 2.70704 32.1268C3.19172 31.8211 3.63776 31.6262 4.22199 31.759C4.70492 31.8687 5.1768 32.2178 5.42711 32.6446C5.66509 33.0505 5.7696 33.5207 5.64029 33.9804C5.49751 34.488 5.15525 34.7379 4.71486 34.9711C4.24266 35.221 3.74615 35.2958 3.22883 35.1329L2.81821 34.9579C2.87312 35.2359 2.96138 35.5431 3.09258 35.7944C3.25838 36.112 3.54653 36.4236 3.76711 36.7066C4.12079 37.1603 4.45724 37.6245 4.84078 38.0541C4.99722 38.2293 5.32882 38.4886 5.40908 38.6988Z" fill="#F5C68D"/>
<path d="M2.63375 32.179C2.67645 32.3215 2.60428 32.5032 2.5757 32.6516C2.53109 32.8831 2.49476 33.1195 2.49534 33.3559C2.49619 33.7041 2.60134 34.0721 2.67786 34.4103C2.71259 34.5637 2.78927 34.7573 2.76239 34.9126C2.6114 34.8028 2.45978 34.6911 2.3379 34.5481C2.08856 34.2554 1.94613 33.8201 1.97588 33.4361C2.01627 32.9148 2.24577 32.5153 2.63375 32.179Z" fill="#FAB383"/>
<path d="M0 59.37L2.86226 59.4174C3.08696 59.4146 3.4169 59.3702 3.61776 59.4668C3.71808 59.6043 3.7104 59.975 3.72971 60.1474L3.98851 62.1599C4.05395 62.6845 4.08499 63.269 4.23152 63.7763C4.32789 64.11 4.44656 64.3754 4.67569 64.6416L10.1448 64.8563L16.0644 65.0731C16.068 65.8201 16.1362 66.5614 16.3309 67.2835C16.4498 67.7245 16.8787 68.1141 17.2681 68.3262C17.507 68.4563 18.0085 68.5467 18.2813 68.5785C18.8033 68.6394 19.3942 68.588 19.9223 68.5877L21.4426 68.5854C21.7935 68.5867 22.1764 68.6221 22.5178 68.5295C22.7365 68.4702 22.9973 68.4455 23.202 68.351C23.339 68.2878 23.4685 68.186 23.5884 68.0952C23.8099 67.9276 24.0486 67.6397 24.1575 67.3834C24.2417 67.1857 24.2757 66.9257 24.3236 66.7151L24.6776 64.7303L27.0375 64.7981L27.3691 66.3442C27.42 66.5666 27.4513 66.8421 27.5468 67.0452C27.6227 67.207 27.7575 67.3753 27.8725 67.5125C28.3161 68.0421 29.0528 68.1908 29.7102 68.2579C30.7496 68.3642 31.8085 68.3724 32.8528 68.3948L37.9162 68.4149L40.8767 68.3376C41.3722 68.3146 41.8866 68.308 42.3765 68.2303C42.9525 68.1389 43.3969 68.0374 43.851 67.6582C44.611 67.0235 44.5823 65.6933 44.6714 64.7869L45.8773 64.8266C45.9558 65.4103 46.0336 65.9908 46.1697 66.5644C46.2113 66.7399 46.2431 66.9564 46.3258 67.1172C46.4405 67.3401 46.6455 67.585 46.8439 67.7351C46.9614 67.824 47.1064 67.9433 47.2425 67.9983C47.5541 68.1243 47.9886 68.1949 48.3255 68.2427C49.2712 68.3766 50.272 68.369 51.2264 68.39L56.0158 68.4203L59.5788 68.3488C60.2229 68.3249 60.891 68.3173 61.5297 68.2291C62.1595 68.1421 62.8859 67.9923 63.2921 67.4549C63.3923 67.3223 63.5097 67.1783 63.5828 67.0288C63.6525 66.886 63.6787 66.685 63.7131 66.5296C63.8388 65.9627 63.8606 65.4015 63.9111 64.8246L65.6956 64.8613C66.0139 64.865 66.3533 64.8899 66.6687 64.8438L66.8329 64.8209C67.1366 64.7796 67.4322 64.7071 67.6174 64.4426C67.7257 64.2877 67.6609 64.0332 67.6851 63.8527L67.8945 62.6148L68.1214 61.0987C68.1495 60.9346 68.1649 60.6463 68.2771 60.523C68.3125 60.4842 68.3809 60.4728 68.4316 60.4704C68.773 60.4536 69.1299 60.49 69.4734 60.4942L72 60.5429V72H0V59.4759V59.37Z" fill="url(#paint5_linear_4_40)"/>
<path d="M0 59.37L2.86226 59.4174C2.65533 59.4994 2.4631 59.4485 2.24807 59.4523C1.92264 59.458 1.59632 59.4772 1.27086 59.4616C1.02409 59.4499 0.739814 59.3597 0.501201 59.4757C0.393274 59.5281 0.275364 59.546 0.158264 59.5677L0 59.4759V59.37Z" fill="#28982A"/>
</g>
<defs>
<linearGradient id="paint0_linear_4_40" x1="28.6999" y1="16.7173" x2="22.1911" y2="17.7456" gradientUnits="userSpaceOnUse">
<stop stop-color="#ED9771"/>
<stop offset="1" stop-color="#FDCFA6"/>
</linearGradient>
<linearGradient id="paint1_linear_4_40" x1="28.2041" y1="6.09943" x2="28.8983" y2="2.8797" gradientUnits="userSpaceOnUse">
<stop stop-color="#A87357"/>
<stop offset="1" stop-color="#BD8A66"/>
</linearGradient>
<linearGradient id="paint2_linear_4_40" x1="11.1226" y1="-0.321301" x2="10.2449" y2="29.4127" gradientUnits="userSpaceOnUse">
<stop stop-color="#51B8F6"/>
<stop offset="1" stop-color="#48F9FF"/>
</linearGradient>
<linearGradient id="paint3_linear_4_40" x1="58.365" y1="-0.0784803" x2="58.214" y2="26.0769" gradientUnits="userSpaceOnUse">
<stop stop-color="#51B8F6"/>
<stop offset="1" stop-color="#49F3FE"/>
</linearGradient>
<linearGradient id="paint4_linear_4_40" x1="25.4459" y1="62.5984" x2="26.2297" y2="59.575" gradientUnits="userSpaceOnUse">
<stop stop-color="#C97F52"/>
<stop offset="1" stop-color="#D99D71"/>
</linearGradient>
<linearGradient id="paint5_linear_4_40" x1="35.261" y1="56.7808" x2="36.6169" y2="74.6474" gradientUnits="userSpaceOnUse">
<stop stop-color="#39A335"/>
<stop offset="1" stop-color="#91DD5F"/>
</linearGradient>
<clipPath id="clip0_4_40">
<rect width="72" height="72" rx="16" fill="white"/>
</clipPath>
</defs>
</svg>
