<svg width="72" height="72" viewBox="0 0 72 72" fill="none" xmlns="http://www.w3.org/2000/svg">
<g clip-path="url(#clip0_4_213)">
<path d="M0 0H72V72H0V0Z" fill="white"/>
<path d="M35.985 19.0134C35.985 19.0134 20.8125 19.0134 17.0044 20.003C14.9654 20.5727 13.2864 22.2516 12.7167 24.3206C11.7272 28.1287 11.7272 36.015 11.7272 36.015C11.7272 36.015 11.7272 43.9312 12.7167 47.6794C13.2864 49.7483 14.9354 51.3973 17.0044 51.967C20.8424 52.9865 35.985 52.9866 35.985 52.9866C35.985 52.9866 51.1876 52.9865 54.9956 51.997C57.0646 51.4273 58.7135 49.8083 59.2533 47.7094C60.2728 43.9312 60.2728 36.045 60.2728 36.045C60.2728 36.045 60.3028 28.1287 59.2533 24.3206C58.7135 22.2516 57.0646 20.6027 54.9956 20.063C51.1876 19.0135 35.985 19.0134 35.985 19.0134ZM31.1573 28.7287L43.7812 36.015L31.1573 43.2712V28.7287Z" fill="#FF0000"/>
</g>
<defs>
<clipPath id="clip0_4_213">
<rect width="72" height="72" rx="16" fill="white"/>
</clipPath>
</defs>
</svg>
