<svg width="32" height="32" viewBox="0 0 32 32" fill="none" xmlns="http://www.w3.org/2000/svg">
<g id="tv_signin">
<mask id="mask0_2_247" style="mask-type:alpha" maskUnits="userSpaceOnUse" x="0" y="0" width="32" height="32">
<rect id="Bounding box" width="32" height="32" fill="#D9D9D9"/>
</mask>
<g mask="url(#mask0_2_247)">
<path id="tv_signin_2" d="M4.88896 25.3333C4.28896 25.3333 3.76851 25.113 3.32763 24.6723C2.88696 24.2314 2.66663 23.711 2.66663 23.111V6.22233C2.66663 5.62233 2.88696 5.10189 3.32763 4.661C3.76851 4.22033 4.28896 4 4.88896 4H27.111C27.711 4 28.2314 4.22033 28.6723 4.661C29.113 5.10189 29.3333 5.62233 29.3333 6.22233V23.111C29.3333 23.711 29.113 24.2314 28.6723 24.6723C28.2314 25.113 27.711 25.3333 27.111 25.3333H21.111V26.889C21.111 27.2037 21.0045 27.4676 20.7916 27.6807C20.5787 27.8936 20.3148 28 20 28H12C11.6851 28 11.4212 27.8936 11.2083 27.6807C10.9954 27.4676 10.889 27.2037 10.889 26.889V25.3333H4.88896ZM4.88896 23.111H27.111V6.22233H4.88896V23.111ZM10.6666 20H21.3333V19.3397C21.3333 18.4392 20.8333 17.7057 19.8333 17.139C18.8333 16.5723 17.5555 16.289 16 16.289C14.4444 16.289 13.1666 16.5723 12.1666 17.139C11.1666 17.7057 10.6666 18.4392 10.6666 19.3397V20ZM15.9983 14.3557C16.6883 14.3557 17.2796 14.1099 17.7723 13.6183C18.2647 13.127 18.511 12.5363 18.511 11.8463C18.511 11.1561 18.2653 10.5648 17.774 10.0723C17.2826 9.57967 16.6918 9.33333 16.0016 9.33333C15.3116 9.33333 14.7203 9.579 14.2276 10.0703C13.7352 10.5619 13.489 11.1527 13.489 11.8427C13.489 12.5327 13.7346 13.124 14.226 13.6167C14.7173 14.1093 15.3081 14.3557 15.9983 14.3557Z" fill="white" fill-opacity="0.32"/>
</g>
</g>
</svg>
