<svg width="32" height="32" viewBox="0 0 32 32" fill="none" xmlns="http://www.w3.org/2000/svg">
<g id="alternate_email">
<mask id="mask0_2_251" style="mask-type:alpha" maskUnits="userSpaceOnUse" x="0" y="0" width="32" height="32">
<rect id="Bounding box" width="32" height="32" fill="#D9D9D9"/>
</mask>
<g mask="url(#mask0_2_251)">
<path id="alternate_email_2" d="M16 29.3334C14.1555 29.3334 12.4222 28.9834 10.8 28.2834C9.17774 27.5834 7.76663 26.6334 6.56663 25.4334C5.36663 24.2334 4.41663 22.8222 3.71663 21.2C3.01663 19.5778 2.66663 17.8445 2.66663 16C2.66663 14.1556 3.01663 12.4222 3.71663 10.8C4.41663 9.1778 5.36663 7.76669 6.56663 6.56669C7.76663 5.36669 9.17774 4.41669 10.8 3.71669C12.4222 3.01669 14.1555 2.66669 16 2.66669C17.8444 2.66669 19.5777 3.01669 21.2 3.71669C22.8222 4.41669 24.2333 5.36669 25.4333 6.56669C26.6333 7.76669 27.5833 9.1778 28.2833 10.8C28.9833 12.4222 29.3333 14.1556 29.3333 16V17.8224C29.3333 19.089 28.8918 20.1612 28.009 21.039C27.1261 21.9168 26.0416 22.3557 24.7556 22.3557C23.9618 22.3557 23.2134 22.1705 22.5103 21.8C21.8072 21.4296 21.2519 20.9037 20.8443 20.2224C20.2443 20.9408 19.5196 21.4759 18.6703 21.8277C17.821 22.1797 16.9308 22.3557 16 22.3557C14.2355 22.3557 12.7314 21.739 11.4876 20.5057C10.2441 19.2724 9.62229 17.7704 9.62229 15.9997C9.62229 14.229 10.2441 12.7198 11.4876 11.472C12.7314 10.224 14.2355 9.60002 16 9.60002C17.7644 9.60002 19.2685 10.224 20.5123 11.472C21.7558 12.72 22.3776 14.2294 22.3776 16V17.8224C22.3776 18.4684 22.6073 19.015 23.0666 19.4624C23.526 19.9097 24.0852 20.1334 24.7443 20.1334C25.4036 20.1334 25.963 19.9097 26.4223 19.4624C26.8814 19.015 27.111 18.4684 27.111 17.8224V16C27.111 12.8982 26.0346 10.2709 23.882 8.11802C21.7291 5.96535 19.1017 4.88902 16 4.88902C12.8982 4.88902 10.2708 5.96535 8.11796 8.11802C5.96529 10.2709 4.88896 12.8982 4.88896 16C4.88896 19.1018 5.96529 21.7291 8.11796 23.882C10.2708 26.0347 12.8982 27.111 16 27.111H21.8666C22.1815 27.111 22.4454 27.2179 22.6583 27.4317C22.8712 27.6455 22.9776 27.9102 22.9776 28.226C22.9776 28.542 22.8712 28.8056 22.6583 29.0167C22.4454 29.2278 22.1815 29.3334 21.8666 29.3334H16ZM16.0013 20.1334C17.156 20.1334 18.137 19.7315 18.9443 18.9277C19.7519 18.1241 20.1556 17.1482 20.1556 16C20.1556 14.8296 19.7514 13.8407 18.943 13.0334C18.1347 12.226 17.1533 11.8224 15.9986 11.8224C14.844 11.8224 13.863 12.226 13.0556 13.0334C12.2481 13.8407 11.8443 14.8296 11.8443 16C11.8443 17.1482 12.2485 18.1241 13.057 18.9277C13.8652 19.7315 14.8466 20.1334 16.0013 20.1334Z" fill="white" fill-opacity="0.32"/>
</g>
</g>
</svg>
