<svg width="32" height="32" viewBox="0 0 32 32" fill="none" xmlns="http://www.w3.org/2000/svg">
<mask id="mask0_151_75" style="mask-type:alpha" maskUnits="userSpaceOnUse" x="0" y="0" width="32" height="32">
<rect width="32" height="32" fill="#D9D9D9"/>
</mask>
<g mask="url(#mask0_151_75)">
<path d="M4.88896 26.6666C4.27785 26.6666 3.75463 26.4491 3.31929 26.014C2.88418 25.5786 2.66663 25.0554 2.66663 24.4443V7.55565C2.66663 6.94453 2.88418 6.42131 3.31929 5.98598C3.75463 5.55087 4.27785 5.33331 4.88896 5.33331H25.5556C25.8703 5.33331 26.1342 5.4402 26.3473 5.65398C26.5602 5.86754 26.6666 6.13231 26.6666 6.44831C26.6666 6.76431 26.5602 7.02787 26.3473 7.23898C26.1342 7.45009 25.8703 7.55565 25.5556 7.55565H4.88896V24.4443H8.66663C8.98152 24.4443 9.2454 24.5512 9.45829 24.765C9.67118 24.9788 9.77763 25.2435 9.77763 25.5593C9.77763 25.8753 9.67118 26.1389 9.45829 26.35C9.2454 26.5611 8.98152 26.6666 8.66663 26.6666H4.88896ZM14.8863 23.7776C15.5027 23.7776 16.0276 23.5619 16.461 23.1303C16.8943 22.6988 17.111 22.1748 17.111 21.5583C17.111 20.9416 16.8952 20.4166 16.4636 19.9833C16.0321 19.55 15.5081 19.3333 14.8916 19.3333C14.275 19.3333 13.75 19.5491 13.3166 19.9806C12.8833 20.4122 12.6666 20.9363 12.6666 21.553C12.6666 22.1694 12.8824 22.6943 13.314 23.1276C13.7455 23.561 14.2696 23.7776 14.8863 23.7776ZM28.2223 26.6666H21.111C20.7963 26.6666 20.5324 26.5602 20.3193 26.3473C20.1064 26.1342 20 25.8703 20 25.5556V13.111C20 12.7963 20.1064 12.5324 20.3193 12.3193C20.5324 12.1064 20.7963 12 21.111 12H28.2223C28.537 12 28.8008 12.1064 29.014 12.3193C29.2268 12.5324 29.3333 12.7963 29.3333 13.111V25.5556C29.3333 25.8703 29.2268 26.1342 29.014 26.3473C28.8008 26.5602 28.537 26.6666 28.2223 26.6666ZM22.2223 24.4443H27.111V14.2223H22.2223V24.4443ZM12.4443 25.5556V24.4333C12.037 24.0851 11.713 23.6629 11.4723 23.1666C11.2314 22.6704 11.111 22.1334 11.111 21.5556C11.111 20.9779 11.2314 20.4408 11.4723 19.9443C11.713 19.4481 12.037 19.0259 12.4443 18.6776V17.5556C12.4443 17.2408 12.5508 16.9769 12.764 16.764C12.9768 16.5509 13.2407 16.4443 13.5556 16.4443H16.2223C16.537 16.4443 16.8008 16.5509 17.014 16.764C17.2268 16.9769 17.3333 17.2408 17.3333 17.5556V18.6776C17.7406 19.0259 18.0647 19.4481 18.3056 19.9443C18.5463 20.4408 18.6666 20.9779 18.6666 21.5556C18.6666 22.1334 18.5463 22.6704 18.3056 23.1666C18.0647 23.6629 17.7406 24.0851 17.3333 24.4333V25.5556C17.3333 25.8703 17.2268 26.1342 17.014 26.3473C16.8008 26.5602 16.537 26.6666 16.2223 26.6666H13.5556C13.2407 26.6666 12.9768 26.5602 12.764 26.3473C12.5508 26.1342 12.4443 25.8703 12.4443 25.5556Z" fill="white" fill-opacity="0.32"/>
</g>
</svg>
