<svg width="32" height="32" viewBox="0 0 32 32" fill="none" xmlns="http://www.w3.org/2000/svg">
<g id="roofing">
<mask id="mask0_4_20" style="mask-type:alpha" maskUnits="userSpaceOnUse" x="0" y="0" width="32" height="32">
<rect id="Bounding box" width="32" height="32" fill="#00A9FF"/>
</mask>
<g mask="url(#mask0_4_20)">
<path id="roofing_2" d="M14.3777 26.6667C13.7666 26.6667 13.2435 26.4491 12.8083 26.014C12.3732 25.5786 12.1557 25.0554 12.1557 24.4443V21.2C12.1557 20.5889 12.3732 20.0658 12.8083 19.6307C13.2435 19.1953 13.7666 18.9777 14.3777 18.9777H17.6223C18.2335 18.9777 18.7566 19.1953 19.1917 19.6307C19.6268 20.0658 19.8443 20.5889 19.8443 21.2V24.4443C19.8443 25.0554 19.6268 25.5786 19.1917 26.014C18.7566 26.4491 18.2335 26.6667 17.6223 26.6667H14.3777ZM14.3777 24.4443H17.6223V21.2H14.3777V24.4443ZM3.55567 16.311C3.29856 16.5036 3.02312 16.5778 2.72934 16.5333C2.43579 16.4889 2.19267 16.3408 2.00001 16.089C1.80734 15.837 1.73467 15.5614 1.78201 15.2623C1.82934 14.9632 1.97612 14.7202 2.22234 14.5333L14.6557 5.01098C14.8568 4.86298 15.0717 4.75187 15.3003 4.67765C15.529 4.60365 15.7622 4.56665 16 4.56665C16.2378 4.56665 16.471 4.60365 16.6997 4.67765C16.9283 4.75187 17.1432 4.86298 17.3443 5.01098L21.7333 8.35565V7.11098C21.7333 6.61721 21.9065 6.19754 22.2527 5.85198C22.5989 5.50621 23.0192 5.33332 23.5137 5.33332C24.0083 5.33332 24.4279 5.50621 24.7723 5.85198C25.1168 6.19754 25.289 6.61721 25.289 7.11098V11.089L29.811 14.5333C30.0546 14.7202 30.1951 14.9632 30.2327 15.2623C30.2702 15.5614 30.1927 15.837 30 16.089C29.8073 16.3408 29.5642 16.4889 29.2707 16.5333C28.9769 16.5778 28.7015 16.5036 28.4443 16.311L16 6.78898L3.55567 16.311Z" fill="white" fill-opacity="0.32"/>
</g>
</g>
</svg>
