<svg width="48" height="48" viewBox="0 0 48 48" fill="none" xmlns="http://www.w3.org/2000/svg">
<mask id="mask0_151_122" style="mask-type:alpha" maskUnits="userSpaceOnUse" x="0" y="0" width="48" height="48">
<rect width="48" height="48" fill="#D9D9D9"/>
</mask>
<g mask="url(#mask0_151_122)">
<path d="M7.3332 38.8C6.9556 38.8 6.63893 38.6717 6.3832 38.4152C6.12773 38.1589 6 37.8412 6 37.462C6 37.0828 6.12773 36.7665 6.3832 36.5132C6.63893 36.2599 6.9556 36.1332 7.3332 36.1332H39.8668C40.2444 36.1332 40.5611 36.2615 40.8168 36.518C41.0723 36.7745 41.2 37.0923 41.2 37.4712C41.2 37.8504 41.0723 38.1667 40.8168 38.42C40.5611 38.6733 40.2444 38.8 39.8668 38.8H7.3332ZM10.2668 34C9.5468 34 8.92227 33.7356 8.3932 33.2068C7.8644 32.6777 7.6 32.0532 7.6 31.3332V12.6668C7.6 11.9468 7.8644 11.3223 8.3932 10.7932C8.92227 10.2644 9.5468 10 10.2668 10H36.9332C37.6532 10 38.2777 10.2644 38.8068 10.7932C39.3356 11.3223 39.6 11.9468 39.6 12.6668V31.3332C39.6 32.0532 39.3356 32.6777 38.8068 33.2068C38.2777 33.7356 37.6532 34 36.9332 34H10.2668ZM10.2668 31.3332H36.9332V12.6668H10.2668V31.3332Z" fill="white"/>
</g>
</svg>
