<svg width="32" height="32" viewBox="0 0 32 32" fill="none" xmlns="http://www.w3.org/2000/svg">
<g id="user_attributes">
<mask id="mask0_2_243" style="mask-type:alpha" maskUnits="userSpaceOnUse" x="0" y="0" width="32" height="32">
<rect id="Bounding box" width="32" height="32" fill="#D9D9D9"/>
</mask>
<g mask="url(#mask0_2_243)">
<path id="user_attributes_2" d="M19.1557 8.88902C18.8408 8.88902 18.5769 8.78213 18.364 8.56835C18.1509 8.35458 18.0444 8.0898 18.0444 7.77402C18.0444 7.45802 18.1509 7.19446 18.364 6.98335C18.5769 6.77224 18.8408 6.66669 19.1557 6.66669H28.2224C28.537 6.66669 28.8009 6.77358 29.014 6.98735C29.2269 7.20091 29.3334 7.46569 29.3334 7.78169C29.3334 8.09769 29.2269 8.36124 29.014 8.57235C28.8009 8.78346 28.537 8.88902 28.2224 8.88902H19.1557ZM19.1557 14.2224C18.8408 14.2224 18.5769 14.1155 18.364 13.9017C18.1509 13.6879 18.0444 13.4231 18.0444 13.1074C18.0444 12.7914 18.1509 12.5278 18.364 12.3167C18.5769 12.1056 18.8408 12 19.1557 12H28.2224C28.537 12 28.8009 12.1069 29.014 12.3207C29.2269 12.5342 29.3334 12.799 29.3334 13.115C29.3334 13.431 29.2269 13.6946 29.014 13.9057C28.8009 14.1168 28.537 14.2224 28.2224 14.2224H19.1557ZM19.1557 19.5557C18.8408 19.5557 18.5769 19.4488 18.364 19.235C18.1509 19.0212 18.0444 18.7565 18.0444 18.4407C18.0444 18.1247 18.1509 17.8611 18.364 17.65C18.5769 17.4389 18.8408 17.3334 19.1557 17.3334H28.2224C28.537 17.3334 28.8009 17.4402 29.014 17.654C29.2269 17.8676 29.3334 18.1324 29.3334 18.4484C29.3334 18.7644 29.2269 19.0279 29.014 19.239C28.8009 19.4501 28.537 19.5557 28.2224 19.5557H19.1557ZM10.6667 18.6C9.54069 18.6 8.59991 18.2222 7.84435 17.4667C7.0888 16.7111 6.71102 15.7704 6.71102 14.6444C6.71102 13.5186 7.0888 12.5779 7.84435 11.8224C8.59991 11.0668 9.54069 10.689 10.6667 10.689C11.7927 10.689 12.7335 11.0668 13.489 11.8224C14.2446 12.5779 14.6224 13.5186 14.6224 14.6444C14.6224 15.7704 14.2446 16.7111 13.489 17.4667C12.7335 18.2222 11.7927 18.6 10.6667 18.6ZM2.66669 25.5557V24.3557C2.66669 23.9206 2.77035 23.5062 2.97769 23.1127C3.18524 22.7191 3.4668 22.4297 3.82235 22.2444C4.82235 21.5704 5.90569 21.0686 7.07235 20.739C8.23902 20.4092 9.43713 20.2444 10.6667 20.2444C11.8962 20.2444 13.0907 20.4204 14.25 20.7724C15.4094 21.1241 16.4964 21.6148 17.511 22.2444C17.8519 22.4741 18.1297 22.7741 18.3444 23.1444C18.5592 23.5148 18.6667 23.9186 18.6667 24.3557V25.5557C18.6667 25.8704 18.5602 26.1342 18.3474 26.3474C18.1342 26.5602 17.8704 26.6667 17.5557 26.6667H3.77769C3.46302 26.6667 3.19913 26.5602 2.98602 26.3474C2.77313 26.1342 2.66669 25.8704 2.66669 25.5557ZM4.84435 24.2V24.4444H16.489V24.2C15.6519 23.6667 14.7111 23.2445 13.6667 22.9334C12.6222 22.6222 11.6222 22.4667 10.6667 22.4667C9.71113 22.4667 8.70747 22.6222 7.65569 22.9334C6.60369 23.2445 5.66658 23.6667 4.84435 24.2ZM10.6667 16.3777C11.1778 16.3777 11.5945 16.2166 11.9167 15.8944C12.2389 15.5721 12.4 15.1555 12.4 14.6444C12.4 14.1332 12.2389 13.7166 11.9167 13.3944C11.5945 13.0721 11.1778 12.911 10.6667 12.911C10.1556 12.911 9.73891 13.0721 9.41669 13.3944C9.09447 13.7166 8.93335 14.1332 8.93335 14.6444C8.93335 15.1555 9.09447 15.5721 9.41669 15.8944C9.73891 16.2166 10.1556 16.3777 10.6667 16.3777Z" fill="white" fill-opacity="0.32"/>
</g>
</g>
</svg>
