<svg width="48" height="48" viewBox="0 0 48 48" fill="none" xmlns="http://www.w3.org/2000/svg">
<mask id="mask0_151_128" style="mask-type:alpha" maskUnits="userSpaceOnUse" x="0" y="0" width="48" height="48">
<rect width="48" height="48" fill="#D9D9D9"/>
</mask>
<g mask="url(#mask0_151_128)">
<path d="M21.4335 40C20.8573 40 20.3312 39.8244 19.8554 39.4732C19.3795 39.1223 19.063 38.6535 18.9058 38.0668L17.95 34.6132C17.8104 34.1511 17.6031 33.7 17.3281 33.26C17.0531 32.82 16.6885 32.3777 16.2344 31.9332C15.2043 30.9465 14.4077 29.7732 13.8446 28.4132C13.2815 27.0532 13 25.5821 13 24C13 22.4445 13.2772 20.9823 13.8317 19.6132C14.3859 18.2444 15.1781 17.0623 16.2085 16.0668C16.6623 15.6135 17.0311 15.1645 17.3147 14.72C17.5987 14.2755 17.8104 13.8311 17.95 13.3868L18.9058 9.9332C19.063 9.34653 19.3795 8.87773 19.8554 8.5268C20.3312 8.1756 20.8573 8 21.4335 8H26.5665C27.1427 8 27.6688 8.1756 28.1446 8.5268C28.6205 8.87773 28.937 9.34653 29.0942 9.9332L30.05 13.3868C30.1896 13.8489 30.4013 14.3 30.6853 14.74C30.9689 15.18 31.3377 15.6223 31.7915 16.0668C32.8219 17.0356 33.6141 18.2044 34.1683 19.5732C34.7228 20.9423 35 22.4179 35 24C35 25.5555 34.7185 27.0132 34.1554 28.3732C33.5923 29.7332 32.7957 30.9199 31.7656 31.9332C31.3115 32.3865 30.9469 32.8311 30.6719 33.2668C30.3969 33.7023 30.1896 34.1511 30.05 34.6132L29.0942 38.0668C28.937 38.6535 28.6205 39.1223 28.1446 39.4732C27.6688 39.8244 27.1427 40 26.5665 40H21.4335ZM24 32.5332C26.331 32.5332 28.3106 31.7044 29.9388 30.0468C31.5668 28.3889 32.3808 26.3733 32.3808 24C32.3808 21.6267 31.5668 19.6111 29.9388 17.9532C28.3106 16.2956 26.331 15.4668 24 15.4668C21.669 15.4668 19.6894 16.2956 18.0612 17.9532C16.4332 19.6111 15.6192 21.6267 15.6192 24C15.6192 26.3733 16.4332 28.3889 18.0612 30.0468C19.6894 31.7044 21.669 32.5332 24 32.5332ZM20.7263 13.36C21.3025 13.1912 21.8591 13.0623 22.396 12.9732C22.9329 12.8844 23.4675 12.84 24 12.84C24.5325 12.84 25.0671 12.8844 25.604 12.9732C26.1409 13.0623 26.6975 13.1912 27.2737 13.36L26.5929 10.6668H21.4071L20.7263 13.36ZM21.4071 37.3332H26.5929L27.2737 34.64C26.6975 34.7912 26.1409 34.9089 25.604 34.9932C25.0671 35.0777 24.5325 35.12 24 35.12C23.4675 35.12 22.9329 35.0777 22.396 34.9932C21.8591 34.9089 21.3025 34.7912 20.7263 34.64L21.4071 37.3332Z" fill="white"/>
</g>
</svg>
