<svg width="48" height="48" viewBox="0 0 48 48" fill="none" xmlns="http://www.w3.org/2000/svg">
<mask id="mask0_151_134" style="mask-type:alpha" maskUnits="userSpaceOnUse" x="0" y="0" width="48" height="48">
<rect width="48" height="48" fill="#D9D9D9"/>
</mask>
<g mask="url(#mask0_151_134)">
<path d="M15.6668 41.2C14.9468 41.2 14.3223 40.9356 13.7932 40.4068C13.2644 39.8777 13 39.2532 13 38.5332V8.6668C13 7.9468 13.2644 7.32227 13.7932 6.7932C14.3223 6.2644 14.9468 6 15.6668 6H32.7332C33.4532 6 34.0777 6.2644 34.6068 6.7932C35.1356 7.32227 35.4 7.9468 35.4 8.6668V38.5332C35.4 39.2532 35.1356 39.8777 34.6068 40.4068C34.0777 40.9356 33.4532 41.2 32.7332 41.2H15.6668ZM15.6668 37.2V38.5332H32.7332V37.2H15.6668ZM15.6668 34.5332H32.7332V12.6668H15.6668V34.5332ZM15.6668 10H32.7332V8.6668H15.6668V10Z" fill="white"/>
</g>
</svg>
