<svg width="48" height="48" viewBox="0 0 48 48" fill="none" xmlns="http://www.w3.org/2000/svg">
<mask id="mask0_151_116" style="mask-type:alpha" maskUnits="userSpaceOnUse" x="0" y="0" width="48" height="48">
<rect width="48" height="48" fill="#D9D9D9"/>
</mask>
<g mask="url(#mask0_151_116)">
<path d="M8.6668 36.6C7.93347 36.6 7.3056 36.3389 6.7832 35.8168C6.26107 35.2944 6 34.6665 6 33.9332V13.6668C6 12.9335 6.26107 12.3056 6.7832 11.7832C7.3056 11.2611 7.93347 11 8.6668 11H38.5332C39.2665 11 39.8944 11.2611 40.4168 11.7832C40.9389 12.3056 41.2 12.9335 41.2 13.6668V33.9332C41.2 34.6665 40.9389 35.2944 40.4168 35.8168C39.8944 36.3389 39.2665 36.6 38.5332 36.6H8.6668ZM10 13.6668H8.6668V33.9332H10V13.6668ZM12.6668 33.9332H34.5332V13.6668H12.6668V33.9332ZM37.2 13.6668V33.9332H38.5332V13.6668H37.2Z" fill="white"/>
</g>
</svg>
